<svg width="423" height="146" viewBox="0 0 423 146" fill="none" xmlns="http://www.w3.org/2000/svg">
<g filter="url(#filter0_f_388_321)">
<g opacity="0.6">
<g filter="url(#filter1_ddd_388_321)">
<rect x="73.0814" y="12.2317" width="20" height="20" rx="4" fill="#1465FD"/>
<path fill-rule="evenodd" clip-rule="evenodd" d="M88.3007 16.9349C88.8098 17.4012 88.8444 18.1919 88.3782 18.701C86.9368 20.2747 86.2437 21.2341 85.2026 23.0969C84.8096 23.8002 84.3742 24.7756 84.0273 25.6054C83.8564 26.0141 83.7115 26.3763 83.6095 26.6361C83.5585 26.7658 83.5184 26.8697 83.4912 26.9405L83.4604 27.0212L83.4528 27.0412L83.451 27.0459C83.2959 27.4581 82.9348 27.7594 82.5013 27.8371C82.0677 27.9148 81.6252 27.7586 81.3366 27.4259L77.7622 23.3063C77.3098 22.7849 77.3657 21.9954 77.8872 21.543C78.4086 21.0905 79.1981 21.1465 79.6505 21.6679L81.8878 24.2464C82.218 23.4759 82.6243 22.5859 83.0203 21.8773C84.1558 19.8456 84.9625 18.7288 86.5346 17.0124C87.0009 16.5033 87.7916 16.4686 88.3007 16.9349Z" fill="white"/>
</g>
<path d="M106.077 26.7317V17.7917H107.253V21.7757H111.729V17.7917H112.917V26.7317H111.729V22.8557H107.253V26.7317H106.077ZM114.77 26.7317V20.2637H115.886V26.7317H114.77ZM114.77 19.2317V17.7917H115.886V19.2317H114.77ZM120.701 29.3717C120.245 29.3717 119.821 29.2997 119.429 29.1557C119.045 29.0117 118.713 28.8117 118.433 28.5557C118.161 28.3077 117.953 28.0157 117.809 27.6797L118.853 27.1997C118.965 27.5037 119.177 27.7597 119.489 27.9677C119.809 28.1837 120.209 28.2917 120.689 28.2917C121.057 28.2917 121.389 28.2197 121.685 28.0757C121.989 27.9397 122.229 27.7317 122.405 27.4517C122.581 27.1797 122.669 26.8477 122.669 26.4557V25.0037L122.873 25.2197C122.649 25.6597 122.325 25.9957 121.901 26.2277C121.485 26.4597 121.025 26.5757 120.521 26.5757C119.913 26.5757 119.369 26.4357 118.889 26.1557C118.409 25.8677 118.033 25.4797 117.761 24.9917C117.489 24.4957 117.353 23.9477 117.353 23.3477C117.353 22.7397 117.489 22.1917 117.761 21.7037C118.033 21.2157 118.405 20.8317 118.877 20.5517C119.357 20.2637 119.901 20.1197 120.509 20.1197C121.013 20.1197 121.469 20.2357 121.877 20.4677C122.293 20.6917 122.625 21.0037 122.873 21.4037L122.705 21.7037V20.2637H123.797V26.4557C123.797 27.0157 123.665 27.5157 123.401 27.9557C123.137 28.3957 122.769 28.7397 122.297 28.9877C121.833 29.2437 121.301 29.3717 120.701 29.3717ZM120.617 25.4957C121.001 25.4957 121.345 25.3997 121.649 25.2077C121.961 25.0157 122.209 24.7597 122.393 24.4397C122.577 24.1117 122.669 23.7477 122.669 23.3477C122.669 22.9557 122.577 22.5957 122.393 22.2677C122.209 21.9397 121.961 21.6797 121.649 21.4877C121.345 21.2957 121.001 21.1997 120.617 21.1997C120.225 21.1997 119.869 21.2957 119.549 21.4877C119.229 21.6797 118.977 21.9397 118.793 22.2677C118.617 22.5877 118.529 22.9477 118.529 23.3477C118.529 23.7477 118.617 24.1117 118.793 24.4397C118.977 24.7597 119.225 25.0157 119.537 25.2077C119.857 25.3997 120.217 25.4957 120.617 25.4957ZM125.527 26.7317V17.6477H126.643V21.5237L126.439 21.4157C126.599 21.0077 126.855 20.6917 127.207 20.4677C127.567 20.2357 127.987 20.1197 128.467 20.1197C128.931 20.1197 129.343 20.2237 129.703 20.4317C130.071 20.6397 130.359 20.9277 130.567 21.2957C130.783 21.6637 130.891 22.0797 130.891 22.5437V26.7317H129.763V22.9037C129.763 22.5437 129.695 22.2397 129.559 21.9917C129.431 21.7437 129.251 21.5517 129.019 21.4157C128.787 21.2717 128.519 21.1997 128.215 21.1997C127.919 21.1997 127.651 21.2717 127.411 21.4157C127.171 21.5517 126.983 21.7477 126.847 22.0037C126.711 22.2517 126.643 22.5517 126.643 22.9037V26.7317H125.527ZM134.695 26.7317V17.7917H137.851C138.443 17.7917 138.963 17.9037 139.411 18.1277C139.859 18.3517 140.207 18.6717 140.455 19.0877C140.711 19.5037 140.839 19.9917 140.839 20.5517C140.839 21.1117 140.711 21.5997 140.455 22.0157C140.207 22.4237 139.859 22.7437 139.411 22.9757C138.971 23.1997 138.451 23.3117 137.851 23.3117H135.871V26.7317H134.695ZM135.871 22.2317H137.887C138.247 22.2317 138.559 22.1637 138.823 22.0277C139.087 21.8917 139.291 21.6957 139.435 21.4397C139.579 21.1837 139.651 20.8877 139.651 20.5517C139.651 20.2077 139.579 19.9117 139.435 19.6637C139.291 19.4077 139.087 19.2117 138.823 19.0757C138.559 18.9397 138.247 18.8717 137.887 18.8717H135.871V22.2317ZM145.039 26.8757C144.415 26.8757 143.859 26.7277 143.371 26.4317C142.883 26.1357 142.499 25.7317 142.219 25.2197C141.939 24.6997 141.799 24.1197 141.799 23.4797C141.799 22.8317 141.935 22.2557 142.207 21.7517C142.487 21.2477 142.863 20.8517 143.335 20.5637C143.815 20.2677 144.351 20.1197 144.943 20.1197C145.423 20.1197 145.847 20.2077 146.215 20.3837C146.591 20.5517 146.907 20.7837 147.163 21.0797C147.427 21.3677 147.627 21.6997 147.763 22.0757C147.907 22.4437 147.979 22.8277 147.979 23.2277C147.979 23.3157 147.971 23.4157 147.955 23.5277C147.947 23.6317 147.935 23.7317 147.919 23.8277H142.615V22.8677H147.271L146.743 23.2997C146.815 22.8837 146.775 22.5117 146.623 22.1837C146.471 21.8557 146.247 21.5957 145.951 21.4037C145.655 21.2117 145.319 21.1157 144.943 21.1157C144.567 21.1157 144.223 21.2117 143.911 21.4037C143.599 21.5957 143.355 21.8717 143.179 22.2317C143.011 22.5837 142.943 23.0037 142.975 23.4917C142.943 23.9637 143.015 24.3797 143.191 24.7397C143.375 25.0917 143.631 25.3677 143.959 25.5677C144.295 25.7597 144.659 25.8557 145.051 25.8557C145.483 25.8557 145.847 25.7557 146.143 25.5557C146.439 25.3557 146.679 25.0997 146.863 24.7877L147.799 25.2677C147.671 25.5637 147.471 25.8357 147.199 26.0837C146.935 26.3237 146.619 26.5157 146.251 26.6597C145.891 26.8037 145.487 26.8757 145.039 26.8757ZM149.434 26.7317V20.2637H150.526V21.4517L150.406 21.2837C150.558 20.9157 150.79 20.6437 151.102 20.4677C151.414 20.2837 151.794 20.1917 152.242 20.1917H152.638V21.2477H152.074C151.618 21.2477 151.25 21.3917 150.97 21.6797C150.69 21.9597 150.55 22.3597 150.55 22.8797V26.7317H149.434ZM154.313 26.7317V21.3317H153.077V20.2637H154.313V19.8077C154.313 19.3437 154.413 18.9517 154.613 18.6317C154.821 18.3117 155.093 18.0677 155.429 17.8997C155.773 17.7317 156.153 17.6477 156.569 17.6477C156.657 17.6477 156.753 17.6557 156.857 17.6717C156.969 17.6797 157.061 17.6917 157.133 17.7077V18.7037C157.069 18.6877 156.993 18.6797 156.905 18.6797C156.817 18.6717 156.749 18.6677 156.701 18.6677C156.333 18.6677 156.029 18.7557 155.789 18.9317C155.557 19.1077 155.441 19.3997 155.441 19.8077V20.2637H156.977V21.3317H155.441V26.7317H154.313ZM161.166 26.8757C160.542 26.8757 159.978 26.7317 159.474 26.4437C158.97 26.1477 158.57 25.7437 158.274 25.2317C157.978 24.7197 157.83 24.1397 157.83 23.4917C157.83 22.8437 157.974 22.2677 158.262 21.7637C158.558 21.2597 158.958 20.8597 159.462 20.5637C159.966 20.2677 160.534 20.1197 161.166 20.1197C161.79 20.1197 162.354 20.2677 162.858 20.5637C163.362 20.8517 163.758 21.2477 164.046 21.7517C164.342 22.2557 164.49 22.8357 164.49 23.4917C164.49 24.1477 164.338 24.7317 164.034 25.2437C163.73 25.7477 163.326 26.1477 162.822 26.4437C162.326 26.7317 161.774 26.8757 161.166 26.8757ZM161.166 25.7957C161.566 25.7957 161.926 25.6957 162.246 25.4957C162.574 25.2957 162.83 25.0197 163.014 24.6677C163.206 24.3157 163.302 23.9237 163.302 23.4917C163.302 23.0517 163.206 22.6637 163.014 22.3277C162.83 21.9837 162.574 21.7117 162.246 21.5117C161.926 21.3037 161.566 21.1997 161.166 21.1997C160.758 21.1997 160.39 21.3037 160.062 21.5117C159.742 21.7117 159.486 21.9837 159.294 22.3277C159.102 22.6637 159.006 23.0517 159.006 23.4917C159.006 23.9237 159.102 24.3157 159.294 24.6677C159.486 25.0197 159.742 25.2957 160.062 25.4957C160.39 25.6957 160.758 25.7957 161.166 25.7957ZM165.945 26.7317V20.2637H167.037V21.4517L166.917 21.2837C167.069 20.9157 167.301 20.6437 167.613 20.4677C167.925 20.2837 168.305 20.1917 168.753 20.1917H169.149V21.2477H168.585C168.129 21.2477 167.761 21.3917 167.481 21.6797C167.201 21.9597 167.061 22.3597 167.061 22.8797V26.7317H165.945ZM170.141 26.7317V20.2637H171.233V21.5837L171.077 21.3797C171.237 20.9717 171.493 20.6597 171.845 20.4437C172.197 20.2277 172.593 20.1197 173.033 20.1197C173.537 20.1197 173.989 20.2597 174.389 20.5397C174.797 20.8197 175.077 21.1877 175.229 21.6437L174.917 21.6557C175.085 21.1517 175.369 20.7717 175.769 20.5157C176.169 20.2517 176.613 20.1197 177.101 20.1197C177.549 20.1197 177.953 20.2237 178.313 20.4317C178.681 20.6397 178.973 20.9277 179.189 21.2957C179.405 21.6637 179.513 22.0797 179.513 22.5437V26.7317H178.385V22.9037C178.385 22.5437 178.321 22.2397 178.193 21.9917C178.065 21.7437 177.889 21.5517 177.665 21.4157C177.449 21.2717 177.193 21.1997 176.897 21.1997C176.609 21.1997 176.349 21.2717 176.117 21.4157C175.893 21.5517 175.713 21.7477 175.577 22.0037C175.449 22.2517 175.385 22.5517 175.385 22.9037V26.7317H174.257V22.9037C174.257 22.5437 174.193 22.2397 174.065 21.9917C173.937 21.7437 173.761 21.5517 173.537 21.4157C173.321 21.2717 173.065 21.1997 172.769 21.1997C172.481 21.1997 172.221 21.2717 171.989 21.4157C171.765 21.5517 171.585 21.7477 171.449 22.0037C171.321 22.2517 171.257 22.5517 171.257 22.9037V26.7317H170.141ZM182.994 26.8757C182.57 26.8757 182.194 26.7997 181.866 26.6477C181.546 26.4877 181.294 26.2717 181.11 25.9997C180.926 25.7197 180.834 25.3997 180.834 25.0397C180.834 24.6957 180.906 24.3877 181.05 24.1157C181.202 23.8357 181.434 23.5997 181.746 23.4077C182.066 23.2157 182.466 23.0797 182.946 22.9997L185.346 22.6037V23.5397L183.198 23.8997C182.782 23.9717 182.478 24.1037 182.286 24.2957C182.102 24.4877 182.01 24.7237 182.01 25.0037C182.01 25.2677 182.114 25.4877 182.322 25.6637C182.538 25.8397 182.806 25.9277 183.126 25.9277C183.534 25.9277 183.886 25.8437 184.182 25.6757C184.486 25.4997 184.722 25.2637 184.89 24.9677C185.066 24.6717 185.154 24.3437 185.154 23.9837V22.3397C185.154 21.9877 185.022 21.7037 184.758 21.4877C184.502 21.2637 184.162 21.1517 183.738 21.1517C183.37 21.1517 183.042 21.2477 182.754 21.4397C182.474 21.6237 182.266 21.8717 182.13 22.1837L181.158 21.6797C181.278 21.3837 181.47 21.1197 181.734 20.8877C181.998 20.6477 182.306 20.4597 182.658 20.3237C183.01 20.1877 183.378 20.1197 183.762 20.1197C184.258 20.1197 184.694 20.2157 185.07 20.4077C185.446 20.5917 185.738 20.8517 185.946 21.1877C186.162 21.5157 186.27 21.8997 186.27 22.3397V26.7317H185.178V25.5077L185.382 25.5797C185.246 25.8357 185.062 26.0597 184.83 26.2517C184.598 26.4437 184.326 26.5957 184.014 26.7077C183.702 26.8197 183.362 26.8757 182.994 26.8757ZM188 26.7317V20.2637H189.092V21.5237L188.912 21.4157C189.072 21.0077 189.328 20.6917 189.68 20.4677C190.04 20.2357 190.46 20.1197 190.94 20.1197C191.404 20.1197 191.816 20.2237 192.176 20.4317C192.544 20.6397 192.832 20.9277 193.04 21.2957C193.256 21.6637 193.364 22.0797 193.364 22.5437V26.7317H192.236V22.9037C192.236 22.5437 192.172 22.2397 192.044 21.9917C191.916 21.7437 191.732 21.5517 191.492 21.4157C191.26 21.2717 190.992 21.1997 190.688 21.1997C190.384 21.1997 190.112 21.2717 189.872 21.4157C189.64 21.5517 189.456 21.7477 189.32 22.0037C189.184 22.2517 189.116 22.5517 189.116 22.9037V26.7317H188ZM197.961 26.8757C197.329 26.8757 196.765 26.7277 196.269 26.4317C195.781 26.1357 195.397 25.7317 195.117 25.2197C194.837 24.7077 194.697 24.1317 194.697 23.4917C194.697 22.8437 194.837 22.2677 195.117 21.7637C195.397 21.2597 195.781 20.8597 196.269 20.5637C196.765 20.2677 197.329 20.1197 197.961 20.1197C198.385 20.1197 198.781 20.1957 199.149 20.3477C199.517 20.4997 199.841 20.7037 200.121 20.9597C200.401 21.2157 200.605 21.5157 200.733 21.8597L199.737 22.3397C199.585 22.0037 199.353 21.7317 199.041 21.5237C198.729 21.3077 198.369 21.1997 197.961 21.1997C197.569 21.1997 197.213 21.2997 196.893 21.4997C196.581 21.6997 196.333 21.9717 196.149 22.3157C195.965 22.6597 195.873 23.0557 195.873 23.5037C195.873 23.9357 195.965 24.3277 196.149 24.6797C196.333 25.0237 196.581 25.2957 196.893 25.4957C197.213 25.6957 197.569 25.7957 197.961 25.7957C198.369 25.7957 198.729 25.6917 199.041 25.4837C199.353 25.2677 199.585 24.9837 199.737 24.6317L200.733 25.1357C200.605 25.4717 200.401 25.7717 200.121 26.0357C199.841 26.2917 199.517 26.4957 199.149 26.6477C198.781 26.7997 198.385 26.8757 197.961 26.8757ZM205.167 26.8757C204.543 26.8757 203.987 26.7277 203.499 26.4317C203.011 26.1357 202.627 25.7317 202.347 25.2197C202.067 24.6997 201.927 24.1197 201.927 23.4797C201.927 22.8317 202.063 22.2557 202.335 21.7517C202.615 21.2477 202.991 20.8517 203.463 20.5637C203.943 20.2677 204.479 20.1197 205.071 20.1197C205.551 20.1197 205.975 20.2077 206.343 20.3837C206.719 20.5517 207.035 20.7837 207.291 21.0797C207.555 21.3677 207.755 21.6997 207.891 22.0757C208.035 22.4437 208.107 22.8277 208.107 23.2277C208.107 23.3157 208.099 23.4157 208.083 23.5277C208.075 23.6317 208.063 23.7317 208.047 23.8277H202.743V22.8677H207.399L206.871 23.2997C206.943 22.8837 206.903 22.5117 206.751 22.1837C206.599 21.8557 206.375 21.5957 206.079 21.4037C205.783 21.2117 205.447 21.1157 205.071 21.1157C204.695 21.1157 204.351 21.2117 204.039 21.4037C203.727 21.5957 203.483 21.8717 203.307 22.2317C203.139 22.5837 203.071 23.0037 203.103 23.4917C203.071 23.9637 203.143 24.3797 203.319 24.7397C203.503 25.0917 203.759 25.3677 204.087 25.5677C204.423 25.7597 204.787 25.8557 205.179 25.8557C205.611 25.8557 205.975 25.7557 206.271 25.5557C206.567 25.3557 206.807 25.0997 206.991 24.7877L207.927 25.2677C207.799 25.5637 207.599 25.8357 207.327 26.0837C207.063 26.3237 206.747 26.5157 206.379 26.6597C206.019 26.8037 205.615 26.8757 205.167 26.8757Z" fill="white"/>
</g>
</g>
<g filter="url(#filter2_f_388_321)">
<rect x="37.0583" y="28.4636" width="349.3" height="48.3216" rx="11.8007" fill="#092A67" fill-opacity="0.6"/>
<rect x="37.0583" y="28.4636" width="349.3" height="48.3216" rx="11.8007" fill="black" fill-opacity="0.02"/>
<g opacity="0.8">
<g filter="url(#filter3_ddd_388_321)">
<rect x="51.2191" y="42.6245" width="20" height="20" rx="4" fill="#1465FD"/>
<path fill-rule="evenodd" clip-rule="evenodd" d="M66.4384 47.3277C66.9475 47.794 66.9822 48.5847 66.5159 49.0938C65.0745 50.6675 64.3815 51.6269 63.3404 53.4897C62.9473 54.1931 62.512 55.1685 62.165 55.9983C61.9941 56.407 61.8493 56.7692 61.7472 57.0289C61.6963 57.1587 61.6561 57.2625 61.6289 57.3334L61.5981 57.414L61.5905 57.4341L61.5888 57.4387C61.4336 57.851 61.0726 58.1522 60.639 58.2299C60.2055 58.3076 59.763 58.1514 59.4743 57.8187L55.9 53.6991C55.4476 53.1777 55.5035 52.3882 56.0249 51.9358C56.5464 51.4834 57.3359 51.5393 57.7883 52.0607L60.0255 54.6393C60.3557 53.8687 60.762 52.9787 61.1581 52.2701C62.2935 50.2384 63.1003 49.1216 64.6724 47.4052C65.1386 46.8961 65.9293 46.8615 66.4384 47.3277Z" fill="white"/>
</g>
<path d="M84.2151 57.1245V48.1845H85.3911V52.1685H89.8671V48.1845H91.0551V57.1245H89.8671V53.2485H85.3911V57.1245H84.2151ZM93.0393 57.1245V48.1845H95.9673C96.8713 48.1845 97.6593 48.3685 98.3313 48.7365C99.0033 49.1045 99.5233 49.6245 99.8913 50.2965C100.259 50.9605 100.443 51.7445 100.443 52.6485C100.443 53.5445 100.259 54.3285 99.8913 55.0005C99.5233 55.6725 99.0033 56.1965 98.3313 56.5725C97.6593 56.9405 96.8713 57.1245 95.9673 57.1245H93.0393ZM94.2153 56.0445H95.9793C96.6433 56.0445 97.2153 55.9045 97.6953 55.6245C98.1833 55.3445 98.5593 54.9525 98.8233 54.4485C99.0873 53.9365 99.2193 53.3365 99.2193 52.6485C99.2193 51.9525 99.0833 51.3525 98.8113 50.8485C98.5473 50.3445 98.1713 49.9565 97.6833 49.6845C97.2033 49.4045 96.6353 49.2645 95.9793 49.2645H94.2153V56.0445ZM108.28 57.2685C107.648 57.2685 107.056 57.1565 106.504 56.9325C105.952 56.7005 105.468 56.3765 105.052 55.9605C104.644 55.5445 104.324 55.0565 104.092 54.4965C103.86 53.9285 103.744 53.3125 103.744 52.6485C103.744 51.9765 103.86 51.3605 104.092 50.8005C104.324 50.2405 104.644 49.7525 105.052 49.3365C105.468 48.9205 105.948 48.6005 106.492 48.3765C107.044 48.1525 107.64 48.0405 108.28 48.0405C108.92 48.0405 109.512 48.1565 110.056 48.3885C110.608 48.6125 111.088 48.9325 111.496 49.3485C111.912 49.7565 112.236 50.2405 112.468 50.8005C112.708 51.3605 112.828 51.9765 112.828 52.6485C112.828 53.3125 112.708 53.9285 112.468 54.4965C112.236 55.0565 111.912 55.5445 111.496 55.9605C111.088 56.3765 110.608 56.7005 110.056 56.9325C109.512 57.1565 108.92 57.2685 108.28 57.2685ZM108.28 56.1765C108.776 56.1765 109.228 56.0885 109.636 55.9125C110.044 55.7285 110.396 55.4765 110.692 55.1565C110.996 54.8285 111.228 54.4525 111.388 54.0285C111.556 53.5965 111.64 53.1365 111.64 52.6485C111.64 52.1605 111.556 51.7045 111.388 51.2805C111.228 50.8565 110.996 50.4845 110.692 50.1645C110.396 49.8365 110.044 49.5845 109.636 49.4085C109.228 49.2245 108.776 49.1325 108.28 49.1325C107.792 49.1325 107.344 49.2245 106.936 49.4085C106.528 49.5845 106.172 49.8365 105.868 50.1645C105.572 50.4845 105.34 50.8565 105.172 51.2805C105.004 51.7045 104.92 52.1605 104.92 52.6485C104.92 53.1365 105.004 53.5965 105.172 54.0285C105.34 54.4525 105.572 54.8285 105.868 55.1565C106.172 55.4765 106.528 55.7285 106.936 55.9125C107.344 56.0885 107.792 56.1765 108.28 56.1765ZM110.692 58.2045L107.644 53.5485H108.94L112 58.2045H110.692ZM116.703 57.2685C116.239 57.2685 115.819 57.1605 115.443 56.9445C115.075 56.7285 114.787 56.4285 114.579 56.0445C114.379 55.6525 114.279 55.2045 114.279 54.7005V50.6565H115.395V54.5805C115.395 54.9005 115.459 55.1805 115.587 55.4205C115.723 55.6605 115.907 55.8485 116.139 55.9845C116.379 56.1205 116.651 56.1885 116.955 56.1885C117.259 56.1885 117.527 56.1205 117.759 55.9845C117.999 55.8485 118.183 55.6525 118.311 55.3965C118.447 55.1405 118.515 54.8365 118.515 54.4845V50.6565H119.643V57.1245H118.551V55.8645L118.731 55.9725C118.579 56.3805 118.319 56.7005 117.951 56.9325C117.591 57.1565 117.175 57.2685 116.703 57.2685ZM123.268 57.2685C122.844 57.2685 122.468 57.1925 122.14 57.0405C121.82 56.8805 121.568 56.6645 121.384 56.3925C121.2 56.1125 121.108 55.7925 121.108 55.4325C121.108 55.0885 121.18 54.7805 121.324 54.5085C121.476 54.2285 121.708 53.9925 122.02 53.8005C122.34 53.6085 122.74 53.4725 123.22 53.3925L125.62 52.9965V53.9325L123.472 54.2925C123.056 54.3645 122.752 54.4965 122.56 54.6885C122.376 54.8805 122.284 55.1165 122.284 55.3965C122.284 55.6605 122.388 55.8805 122.596 56.0565C122.812 56.2325 123.08 56.3205 123.4 56.3205C123.808 56.3205 124.16 56.2365 124.456 56.0685C124.76 55.8925 124.996 55.6565 125.164 55.3605C125.34 55.0645 125.428 54.7365 125.428 54.3765V52.7325C125.428 52.3805 125.296 52.0965 125.032 51.8805C124.776 51.6565 124.436 51.5445 124.012 51.5445C123.644 51.5445 123.316 51.6405 123.028 51.8325C122.748 52.0165 122.54 52.2645 122.404 52.5765L121.432 52.0725C121.552 51.7765 121.744 51.5125 122.008 51.2805C122.272 51.0405 122.58 50.8525 122.932 50.7165C123.284 50.5805 123.652 50.5125 124.036 50.5125C124.532 50.5125 124.968 50.6085 125.344 50.8005C125.72 50.9845 126.012 51.2445 126.22 51.5805C126.436 51.9085 126.544 52.2925 126.544 52.7325V57.1245H125.452V55.9005L125.656 55.9725C125.52 56.2285 125.336 56.4525 125.104 56.6445C124.872 56.8365 124.6 56.9885 124.288 57.1005C123.976 57.2125 123.636 57.2685 123.268 57.2685ZM128.275 57.1245V48.0405H129.391V57.1245H128.275ZM131.122 57.1245V50.6565H132.238V57.1245H131.122ZM131.122 49.6245V48.1845H132.238V49.6245H131.122ZM136.598 57.1965C135.966 57.1965 135.478 57.0165 135.134 56.6565C134.798 56.2965 134.63 55.7885 134.63 55.1325V51.7245H133.454V50.6565H133.694C133.982 50.6565 134.21 50.5685 134.378 50.3925C134.546 50.2165 134.63 49.9845 134.63 49.6965V49.1685H135.746V50.6565H137.198V51.7245H135.746V55.0965C135.746 55.3125 135.778 55.5005 135.842 55.6605C135.914 55.8205 136.03 55.9485 136.19 56.0445C136.35 56.1325 136.562 56.1765 136.826 56.1765C136.882 56.1765 136.95 56.1725 137.03 56.1645C137.118 56.1565 137.198 56.1485 137.27 56.1405V57.1245C137.166 57.1485 137.05 57.1645 136.922 57.1725C136.794 57.1885 136.686 57.1965 136.598 57.1965ZM139.076 59.7645C138.932 59.7645 138.788 59.7525 138.644 59.7285C138.5 59.7045 138.364 59.6645 138.236 59.6085V58.6125C138.324 58.6285 138.432 58.6445 138.56 58.6605C138.696 58.6845 138.828 58.6965 138.956 58.6965C139.332 58.6965 139.616 58.6125 139.808 58.4445C140.008 58.2845 140.196 58.0045 140.372 57.6045L140.78 56.6325L140.756 57.6045L137.996 50.6565H139.208L141.356 56.1765H140.996L143.132 50.6565H144.368L141.452 57.8925C141.316 58.2365 141.14 58.5485 140.924 58.8285C140.716 59.1165 140.46 59.3445 140.156 59.5125C139.852 59.6805 139.492 59.7645 139.076 59.7645ZM150.639 57.2685C150.071 57.2685 149.551 57.1645 149.079 56.9565C148.607 56.7405 148.207 56.4485 147.879 56.0805C147.551 55.7125 147.315 55.3005 147.171 54.8445L148.191 54.4245C148.407 55.0005 148.727 55.4445 149.151 55.7565C149.583 56.0605 150.087 56.2125 150.663 56.2125C151.015 56.2125 151.323 56.1565 151.587 56.0445C151.851 55.9325 152.055 55.7765 152.199 55.5765C152.351 55.3685 152.427 55.1285 152.427 54.8565C152.427 54.4805 152.319 54.1845 152.103 53.9685C151.895 53.7445 151.587 53.5765 151.179 53.4645L149.535 52.9605C148.887 52.7605 148.391 52.4445 148.047 52.0125C147.703 51.5805 147.531 51.0845 147.531 50.5245C147.531 50.0365 147.647 49.6085 147.879 49.2405C148.119 48.8645 148.447 48.5725 148.863 48.3645C149.287 48.1485 149.767 48.0405 150.303 48.0405C150.839 48.0405 151.323 48.1365 151.755 48.3285C152.195 48.5205 152.567 48.7805 152.871 49.1085C153.175 49.4285 153.399 49.7965 153.543 50.2125L152.535 50.6325C152.343 50.1285 152.055 49.7485 151.671 49.4925C151.287 49.2285 150.835 49.0965 150.315 49.0965C149.995 49.0965 149.711 49.1525 149.463 49.2645C149.223 49.3685 149.035 49.5245 148.899 49.7325C148.771 49.9325 148.707 50.1725 148.707 50.4525C148.707 50.7805 148.811 51.0725 149.019 51.3285C149.227 51.5845 149.543 51.7805 149.967 51.9165L151.467 52.3605C152.171 52.5765 152.703 52.8845 153.063 53.2845C153.423 53.6845 153.603 54.1805 153.603 54.7725C153.603 55.2605 153.475 55.6925 153.219 56.0685C152.971 56.4445 152.623 56.7405 152.175 56.9565C151.735 57.1645 151.223 57.2685 150.639 57.2685ZM157.82 57.1965C157.188 57.1965 156.7 57.0165 156.356 56.6565C156.02 56.2965 155.852 55.7885 155.852 55.1325V51.7245H154.676V50.6565H154.916C155.204 50.6565 155.432 50.5685 155.6 50.3925C155.768 50.2165 155.852 49.9845 155.852 49.6965V49.1685H156.968V50.6565H158.42V51.7245H156.968V55.0965C156.968 55.3125 157 55.5005 157.064 55.6605C157.136 55.8205 157.252 55.9485 157.412 56.0445C157.572 56.1325 157.784 56.1765 158.048 56.1765C158.104 56.1765 158.172 56.1725 158.252 56.1645C158.34 56.1565 158.42 56.1485 158.492 56.1405V57.1245C158.388 57.1485 158.272 57.1645 158.144 57.1725C158.016 57.1885 157.908 57.1965 157.82 57.1965ZM159.95 57.1245V50.6565H161.042V51.8445L160.922 51.6765C161.074 51.3085 161.306 51.0365 161.618 50.8605C161.93 50.6765 162.31 50.5845 162.758 50.5845H163.154V51.6405H162.59C162.134 51.6405 161.766 51.7845 161.486 52.0725C161.206 52.3525 161.066 52.7525 161.066 53.2725V57.1245H159.95ZM167.122 57.2685C166.498 57.2685 165.942 57.1205 165.454 56.8245C164.966 56.5285 164.582 56.1245 164.302 55.6125C164.022 55.0925 163.882 54.5125 163.882 53.8725C163.882 53.2245 164.018 52.6485 164.29 52.1445C164.57 51.6405 164.946 51.2445 165.418 50.9565C165.898 50.6605 166.434 50.5125 167.026 50.5125C167.506 50.5125 167.93 50.6005 168.298 50.7765C168.674 50.9445 168.99 51.1765 169.246 51.4725C169.51 51.7605 169.71 52.0925 169.846 52.4685C169.99 52.8365 170.062 53.2205 170.062 53.6205C170.062 53.7085 170.054 53.8085 170.038 53.9205C170.03 54.0245 170.018 54.1245 170.002 54.2205H164.698V53.2605H169.354L168.826 53.6925C168.898 53.2765 168.858 52.9045 168.706 52.5765C168.554 52.2485 168.33 51.9885 168.034 51.7965C167.738 51.6045 167.402 51.5085 167.026 51.5085C166.65 51.5085 166.306 51.6045 165.994 51.7965C165.682 51.9885 165.438 52.2645 165.262 52.6245C165.094 52.9765 165.026 53.3965 165.058 53.8845C165.026 54.3565 165.098 54.7725 165.274 55.1325C165.458 55.4845 165.714 55.7605 166.042 55.9605C166.378 56.1525 166.742 56.2485 167.134 56.2485C167.566 56.2485 167.93 56.1485 168.226 55.9485C168.522 55.7485 168.762 55.4925 168.946 55.1805L169.882 55.6605C169.754 55.9565 169.554 56.2285 169.282 56.4765C169.018 56.7165 168.702 56.9085 168.334 57.0525C167.974 57.1965 167.57 57.2685 167.122 57.2685ZM173.331 57.2685C172.907 57.2685 172.531 57.1925 172.203 57.0405C171.883 56.8805 171.631 56.6645 171.447 56.3925C171.263 56.1125 171.171 55.7925 171.171 55.4325C171.171 55.0885 171.243 54.7805 171.387 54.5085C171.539 54.2285 171.771 53.9925 172.083 53.8005C172.403 53.6085 172.803 53.4725 173.283 53.3925L175.683 52.9965V53.9325L173.535 54.2925C173.119 54.3645 172.815 54.4965 172.623 54.6885C172.439 54.8805 172.347 55.1165 172.347 55.3965C172.347 55.6605 172.451 55.8805 172.659 56.0565C172.875 56.2325 173.143 56.3205 173.463 56.3205C173.871 56.3205 174.223 56.2365 174.519 56.0685C174.823 55.8925 175.059 55.6565 175.227 55.3605C175.403 55.0645 175.491 54.7365 175.491 54.3765V52.7325C175.491 52.3805 175.359 52.0965 175.095 51.8805C174.839 51.6565 174.499 51.5445 174.075 51.5445C173.707 51.5445 173.379 51.6405 173.091 51.8325C172.811 52.0165 172.603 52.2645 172.467 52.5765L171.495 52.0725C171.615 51.7765 171.807 51.5125 172.071 51.2805C172.335 51.0405 172.643 50.8525 172.995 50.7165C173.347 50.5805 173.715 50.5125 174.099 50.5125C174.595 50.5125 175.031 50.6085 175.407 50.8005C175.783 50.9845 176.075 51.2445 176.283 51.5805C176.499 51.9085 176.607 52.2925 176.607 52.7325V57.1245H175.515V55.9005L175.719 55.9725C175.583 56.2285 175.399 56.4525 175.167 56.6445C174.935 56.8365 174.663 56.9885 174.351 57.1005C174.039 57.2125 173.699 57.2685 173.331 57.2685ZM178.337 57.1245V50.6565H179.429V51.9765L179.273 51.7725C179.433 51.3645 179.689 51.0525 180.041 50.8365C180.393 50.6205 180.789 50.5125 181.229 50.5125C181.733 50.5125 182.185 50.6525 182.585 50.9325C182.993 51.2125 183.273 51.5805 183.425 52.0365L183.113 52.0485C183.281 51.5445 183.565 51.1645 183.965 50.9085C184.365 50.6445 184.809 50.5125 185.297 50.5125C185.745 50.5125 186.149 50.6165 186.509 50.8245C186.877 51.0325 187.169 51.3205 187.385 51.6885C187.601 52.0565 187.709 52.4725 187.709 52.9365V57.1245H186.581V53.2965C186.581 52.9365 186.517 52.6325 186.389 52.3845C186.261 52.1365 186.085 51.9445 185.861 51.8085C185.645 51.6645 185.389 51.5925 185.093 51.5925C184.805 51.5925 184.545 51.6645 184.313 51.8085C184.089 51.9445 183.909 52.1405 183.773 52.3965C183.645 52.6445 183.581 52.9445 183.581 53.2965V57.1245H182.453V53.2965C182.453 52.9365 182.389 52.6325 182.261 52.3845C182.133 52.1365 181.957 51.9445 181.733 51.8085C181.517 51.6645 181.261 51.5925 180.965 51.5925C180.677 51.5925 180.417 51.6645 180.185 51.8085C179.961 51.9445 179.781 52.1405 179.645 52.3965C179.517 52.6445 179.453 52.9445 179.453 53.2965V57.1245H178.337ZM189.294 57.1245V50.6565H190.41V57.1245H189.294ZM189.294 49.6245V48.1845H190.41V49.6245H189.294ZM192.142 57.1245V50.6565H193.234V51.9165L193.054 51.8085C193.214 51.4005 193.47 51.0845 193.822 50.8605C194.182 50.6285 194.602 50.5125 195.082 50.5125C195.546 50.5125 195.958 50.6165 196.318 50.8245C196.686 51.0325 196.974 51.3205 197.182 51.6885C197.398 52.0565 197.506 52.4725 197.506 52.9365V57.1245H196.378V53.2965C196.378 52.9365 196.314 52.6325 196.186 52.3845C196.058 52.1365 195.874 51.9445 195.634 51.8085C195.402 51.6645 195.134 51.5925 194.83 51.5925C194.526 51.5925 194.254 51.6645 194.014 51.8085C193.782 51.9445 193.598 52.1405 193.462 52.3965C193.326 52.6445 193.258 52.9445 193.258 53.2965V57.1245H192.142ZM202.187 59.7645C201.731 59.7645 201.307 59.6925 200.915 59.5485C200.531 59.4045 200.199 59.2045 199.919 58.9485C199.647 58.7005 199.439 58.4085 199.295 58.0725L200.339 57.5925C200.451 57.8965 200.663 58.1525 200.975 58.3605C201.295 58.5765 201.695 58.6845 202.175 58.6845C202.543 58.6845 202.875 58.6125 203.171 58.4685C203.475 58.3325 203.715 58.1245 203.891 57.8445C204.067 57.5725 204.155 57.2405 204.155 56.8485V55.3965L204.359 55.6125C204.135 56.0525 203.811 56.3885 203.387 56.6205C202.971 56.8525 202.511 56.9685 202.007 56.9685C201.399 56.9685 200.855 56.8285 200.375 56.5485C199.895 56.2605 199.519 55.8725 199.247 55.3845C198.975 54.8885 198.839 54.3405 198.839 53.7405C198.839 53.1325 198.975 52.5845 199.247 52.0965C199.519 51.6085 199.891 51.2245 200.363 50.9445C200.843 50.6565 201.387 50.5125 201.995 50.5125C202.499 50.5125 202.955 50.6285 203.363 50.8605C203.779 51.0845 204.111 51.3965 204.359 51.7965L204.191 52.0965V50.6565H205.283V56.8485C205.283 57.4085 205.151 57.9085 204.887 58.3485C204.623 58.7885 204.255 59.1325 203.783 59.3805C203.319 59.6365 202.787 59.7645 202.187 59.7645ZM202.103 55.8885C202.487 55.8885 202.831 55.7925 203.135 55.6005C203.447 55.4085 203.695 55.1525 203.879 54.8325C204.063 54.5045 204.155 54.1405 204.155 53.7405C204.155 53.3485 204.063 52.9885 203.879 52.6605C203.695 52.3325 203.447 52.0725 203.135 51.8805C202.831 51.6885 202.487 51.5925 202.103 51.5925C201.711 51.5925 201.355 51.6885 201.035 51.8805C200.715 52.0725 200.463 52.3325 200.279 52.6605C200.103 52.9805 200.015 53.3405 200.015 53.7405C200.015 54.1405 200.103 54.5045 200.279 54.8325C200.463 55.1525 200.711 55.4085 201.023 55.6005C201.343 55.7925 201.703 55.8885 202.103 55.8885Z" fill="white"/>
</g>
</g>
<g filter="url(#filter4_d_388_321)">
<rect x="22.9998" y="60.7852" width="377.4" height="50.6" rx="12.75" fill="#092965" shape-rendering="crispEdges"/>
<g filter="url(#filter5_ddd_388_321)">
<rect x="38.2998" y="76.0852" width="20" height="20" rx="4" fill="#1465FD"/>
<path fill-rule="evenodd" clip-rule="evenodd" d="M53.5191 80.7884C54.0282 81.2547 54.0629 82.0454 53.5966 82.5545C52.1552 84.1282 51.4621 85.0876 50.4211 86.9504C50.028 87.6538 49.5927 88.6292 49.2457 89.4589C49.0748 89.8676 48.9299 90.2299 48.8279 90.4896C48.777 90.6193 48.7368 90.7232 48.7096 90.7941L48.6788 90.8747L48.6712 90.8948L48.6695 90.8994C48.5143 91.3117 48.1533 91.6129 47.7197 91.6906C47.2862 91.7683 46.8437 91.6121 46.555 91.2794L42.9807 87.1598C42.5282 86.6384 42.5842 85.8489 43.1056 85.3965C43.6271 84.944 44.4165 85 44.869 85.5214L47.1062 88.0999C47.4364 87.3294 47.8427 86.4394 48.2388 85.7308C49.3742 83.6991 50.181 82.5823 51.753 80.8659C52.2193 80.3568 53.01 80.3221 53.5191 80.7884Z" fill="white"/>
</g>
<path d="M71.2958 90.5852V81.6452H72.2798L77.4158 88.8692L76.9718 88.9172V81.6452H78.1598V90.5852H77.1758L72.0638 83.3132L72.4718 83.2652V90.5852H71.2958ZM83.0952 90.7292C82.4712 90.7292 81.9072 90.5852 81.4032 90.2972C80.8992 90.0012 80.4992 89.5972 80.2032 89.0852C79.9072 88.5732 79.7592 87.9932 79.7592 87.3452C79.7592 86.6972 79.9032 86.1212 80.1912 85.6172C80.4872 85.1132 80.8872 84.7132 81.3912 84.4172C81.8952 84.1212 82.4632 83.9732 83.0952 83.9732C83.7192 83.9732 84.2832 84.1212 84.7872 84.4172C85.2912 84.7052 85.6872 85.1012 85.9752 85.6052C86.2712 86.1092 86.4192 86.6892 86.4192 87.3452C86.4192 88.0012 86.2672 88.5852 85.9632 89.0972C85.6592 89.6012 85.2552 90.0012 84.7512 90.2972C84.2552 90.5852 83.7032 90.7292 83.0952 90.7292ZM83.0952 89.6492C83.4952 89.6492 83.8552 89.5492 84.1752 89.3492C84.5032 89.1492 84.7592 88.8732 84.9432 88.5212C85.1352 88.1692 85.2312 87.7772 85.2312 87.3452C85.2312 86.9052 85.1352 86.5172 84.9432 86.1812C84.7592 85.8372 84.5032 85.5652 84.1752 85.3652C83.8552 85.1572 83.4952 85.0532 83.0952 85.0532C82.6872 85.0532 82.3192 85.1572 81.9912 85.3652C81.6712 85.5652 81.4152 85.8372 81.2232 86.1812C81.0312 86.5172 80.9352 86.9052 80.9352 87.3452C80.9352 87.7772 81.0312 88.1692 81.2232 88.5212C81.4152 88.8732 81.6712 89.1492 81.9912 89.3492C82.3192 89.5492 82.6872 89.6492 83.0952 89.6492ZM91.725 90.5852L89.217 81.6452H90.453L92.553 89.5172H92.265L94.449 81.6452H95.685L97.857 89.5172H97.557L99.669 81.6452H100.905L98.397 90.5852H97.089L94.905 82.7492H95.217L93.033 90.5852H91.725ZM103.318 90.7292C102.894 90.7292 102.518 90.6532 102.19 90.5012C101.87 90.3412 101.618 90.1252 101.434 89.8532C101.25 89.5732 101.158 89.2532 101.158 88.8932C101.158 88.5492 101.23 88.2412 101.374 87.9692C101.526 87.6892 101.758 87.4532 102.07 87.2612C102.39 87.0692 102.79 86.9332 103.27 86.8532L105.67 86.4572V87.3932L103.522 87.7532C103.106 87.8252 102.802 87.9572 102.61 88.1492C102.426 88.3412 102.334 88.5772 102.334 88.8572C102.334 89.1212 102.438 89.3412 102.646 89.5172C102.862 89.6932 103.13 89.7812 103.45 89.7812C103.858 89.7812 104.21 89.6972 104.506 89.5292C104.81 89.3532 105.046 89.1172 105.214 88.8212C105.39 88.5252 105.478 88.1972 105.478 87.8372V86.1932C105.478 85.8412 105.346 85.5572 105.082 85.3412C104.826 85.1172 104.486 85.0052 104.062 85.0052C103.694 85.0052 103.366 85.1012 103.078 85.2932C102.798 85.4772 102.59 85.7252 102.454 86.0372L101.482 85.5332C101.602 85.2372 101.794 84.9732 102.058 84.7412C102.322 84.5012 102.63 84.3132 102.982 84.1772C103.334 84.0412 103.702 83.9732 104.086 83.9732C104.582 83.9732 105.018 84.0692 105.394 84.2612C105.77 84.4452 106.062 84.7052 106.27 85.0412C106.486 85.3692 106.594 85.7532 106.594 86.1932V90.5852H105.502V89.3612L105.706 89.4332C105.57 89.6892 105.386 89.9132 105.154 90.1052C104.922 90.2972 104.65 90.4492 104.338 90.5612C104.026 90.6732 103.686 90.7292 103.318 90.7292ZM110.835 90.6572C110.203 90.6572 109.715 90.4772 109.371 90.1172C109.035 89.7572 108.867 89.2492 108.867 88.5932V85.1852H107.691V84.1172H107.931C108.219 84.1172 108.447 84.0292 108.615 83.8532C108.783 83.6772 108.867 83.4452 108.867 83.1572V82.6292H109.983V84.1172H111.435V85.1852H109.983V88.5572C109.983 88.7732 110.015 88.9612 110.079 89.1212C110.151 89.2812 110.267 89.4092 110.427 89.5052C110.587 89.5932 110.799 89.6372 111.063 89.6372C111.119 89.6372 111.187 89.6332 111.267 89.6252C111.355 89.6172 111.435 89.6092 111.507 89.6012V90.5852C111.403 90.6092 111.287 90.6252 111.159 90.6332C111.031 90.6492 110.923 90.6572 110.835 90.6572ZM115.765 90.7292C115.141 90.7292 114.585 90.5812 114.097 90.2852C113.609 89.9892 113.225 89.5852 112.945 89.0732C112.665 88.5532 112.525 87.9732 112.525 87.3332C112.525 86.6852 112.661 86.1092 112.933 85.6052C113.213 85.1012 113.589 84.7052 114.061 84.4172C114.541 84.1212 115.077 83.9732 115.669 83.9732C116.149 83.9732 116.573 84.0612 116.941 84.2372C117.317 84.4052 117.633 84.6372 117.889 84.9332C118.153 85.2212 118.353 85.5532 118.489 85.9292C118.633 86.2972 118.705 86.6812 118.705 87.0812C118.705 87.1692 118.697 87.2692 118.681 87.3812C118.673 87.4852 118.661 87.5852 118.645 87.6812H113.341V86.7212H117.997L117.469 87.1532C117.541 86.7372 117.501 86.3652 117.349 86.0372C117.197 85.7092 116.973 85.4492 116.677 85.2572C116.381 85.0652 116.045 84.9692 115.669 84.9692C115.293 84.9692 114.949 85.0652 114.637 85.2572C114.325 85.4492 114.081 85.7252 113.905 86.0852C113.737 86.4372 113.669 86.8572 113.701 87.3452C113.669 87.8172 113.741 88.2332 113.917 88.5932C114.101 88.9452 114.357 89.2212 114.685 89.4212C115.021 89.6132 115.385 89.7092 115.777 89.7092C116.209 89.7092 116.573 89.6092 116.869 89.4092C117.165 89.2092 117.405 88.9532 117.589 88.6412L118.525 89.1212C118.397 89.4172 118.197 89.6892 117.925 89.9372C117.661 90.1772 117.345 90.3692 116.977 90.5132C116.617 90.6572 116.213 90.7292 115.765 90.7292ZM120.16 90.5852V84.1172H121.252V85.3052L121.132 85.1372C121.284 84.7692 121.516 84.4972 121.828 84.3212C122.14 84.1372 122.52 84.0452 122.968 84.0452H123.364V85.1012H122.8C122.344 85.1012 121.976 85.2452 121.696 85.5332C121.416 85.8132 121.276 86.2132 121.276 86.7332V90.5852H120.16ZM124.355 90.5852V84.1172H125.447V85.4372L125.291 85.2332C125.451 84.8252 125.707 84.5132 126.059 84.2972C126.411 84.0812 126.807 83.9732 127.247 83.9732C127.751 83.9732 128.203 84.1132 128.603 84.3932C129.011 84.6732 129.291 85.0412 129.443 85.4972L129.131 85.5092C129.299 85.0052 129.583 84.6252 129.983 84.3692C130.383 84.1052 130.827 83.9732 131.315 83.9732C131.763 83.9732 132.167 84.0772 132.527 84.2852C132.895 84.4932 133.187 84.7812 133.403 85.1492C133.619 85.5172 133.727 85.9332 133.727 86.3972V90.5852H132.599V86.7572C132.599 86.3972 132.535 86.0932 132.407 85.8452C132.279 85.5972 132.103 85.4052 131.879 85.2692C131.663 85.1252 131.407 85.0532 131.111 85.0532C130.823 85.0532 130.563 85.1252 130.331 85.2692C130.107 85.4052 129.927 85.6012 129.791 85.8572C129.663 86.1052 129.599 86.4052 129.599 86.7572V90.5852H128.471V86.7572C128.471 86.3972 128.407 86.0932 128.279 85.8452C128.151 85.5972 127.975 85.4052 127.751 85.2692C127.535 85.1252 127.279 85.0532 126.983 85.0532C126.695 85.0532 126.435 85.1252 126.203 85.2692C125.979 85.4052 125.799 85.6012 125.663 85.8572C125.535 86.1052 125.471 86.4052 125.471 86.7572V90.5852H124.355ZM137.208 90.7292C136.784 90.7292 136.408 90.6532 136.08 90.5012C135.76 90.3412 135.508 90.1252 135.324 89.8532C135.14 89.5732 135.048 89.2532 135.048 88.8932C135.048 88.5492 135.12 88.2412 135.264 87.9692C135.416 87.6892 135.648 87.4532 135.96 87.2612C136.28 87.0692 136.68 86.9332 137.16 86.8532L139.56 86.4572V87.3932L137.412 87.7532C136.996 87.8252 136.692 87.9572 136.5 88.1492C136.316 88.3412 136.224 88.5772 136.224 88.8572C136.224 89.1212 136.328 89.3412 136.536 89.5172C136.752 89.6932 137.02 89.7812 137.34 89.7812C137.748 89.7812 138.1 89.6972 138.396 89.5292C138.7 89.3532 138.936 89.1172 139.104 88.8212C139.28 88.5252 139.368 88.1972 139.368 87.8372V86.1932C139.368 85.8412 139.236 85.5572 138.972 85.3412C138.716 85.1172 138.376 85.0052 137.952 85.0052C137.584 85.0052 137.256 85.1012 136.968 85.2932C136.688 85.4772 136.48 85.7252 136.344 86.0372L135.372 85.5332C135.492 85.2372 135.684 84.9732 135.948 84.7412C136.212 84.5012 136.52 84.3132 136.872 84.1772C137.224 84.0412 137.592 83.9732 137.976 83.9732C138.472 83.9732 138.908 84.0692 139.284 84.2612C139.66 84.4452 139.952 84.7052 140.16 85.0412C140.376 85.3692 140.484 85.7532 140.484 86.1932V90.5852H139.392V89.3612L139.596 89.4332C139.46 89.6892 139.276 89.9132 139.044 90.1052C138.812 90.2972 138.54 90.4492 138.228 90.5612C137.916 90.6732 137.576 90.7292 137.208 90.7292ZM142.215 90.5852V84.1172H143.307V85.3052L143.187 85.1372C143.339 84.7692 143.571 84.4972 143.883 84.3212C144.195 84.1372 144.575 84.0452 145.023 84.0452H145.419V85.1012H144.855C144.399 85.1012 144.031 85.2452 143.751 85.5332C143.471 85.8132 143.331 86.2132 143.331 86.7332V90.5852H142.215ZM146.41 90.5852V81.5012H147.526V87.7292L147.07 87.6212L150.502 84.1172H151.93L149.446 86.7212L152.098 90.5852H150.778L148.354 87.0812L149.05 87.0452L147.166 89.0132L147.526 88.1972V90.5852H146.41Z" fill="white"/>
</g>
<defs>
<filter id="filter0_f_388_321" x="60.3495" y="-0.5" width="302.718" height="45.4636" filterUnits="userSpaceOnUse" color-interpolation-filters="sRGB">
<feFlood flood-opacity="0" result="BackgroundImageFix"/>
<feBlend mode="normal" in="SourceGraphic" in2="BackgroundImageFix" result="shape"/>
<feGaussianBlur stdDeviation="0.25" result="effect1_foregroundBlur_388_321"/>
</filter>
<filter id="filter1_ddd_388_321" x="65.5814" y="6.23169" width="35" height="36.5" filterUnits="userSpaceOnUse" color-interpolation-filters="sRGB">
<feFlood flood-opacity="0" result="BackgroundImageFix"/>
<feColorMatrix in="SourceAlpha" type="matrix" values="0 0 0 0 0 0 0 0 0 0 0 0 0 0 0 0 0 0 127 0" result="hardAlpha"/>
<feOffset dy="3"/>
<feGaussianBlur stdDeviation="3.75"/>
<feColorMatrix type="matrix" values="0 0 0 0 0.0784314 0 0 0 0 0.396078 0 0 0 0 0.992157 0 0 0 1 0"/>
<feBlend mode="normal" in2="BackgroundImageFix" result="effect1_dropShadow_388_321"/>
<feColorMatrix in="SourceAlpha" type="matrix" values="0 0 0 0 0 0 0 0 0 0 0 0 0 0 0 0 0 0 127 0" result="hardAlpha"/>
<feMorphology radius="6" operator="dilate" in="SourceAlpha" result="effect2_dropShadow_388_321"/>
<feOffset/>
<feComposite in2="hardAlpha" operator="out"/>
<feColorMatrix type="matrix" values="0 0 0 0 0.0784314 0 0 0 0 0.396078 0 0 0 0 0.992157 0 0 0 0.1 0"/>
<feBlend mode="normal" in2="effect1_dropShadow_388_321" result="effect2_dropShadow_388_321"/>
<feColorMatrix in="SourceAlpha" type="matrix" values="0 0 0 0 0 0 0 0 0 0 0 0 0 0 0 0 0 0 127 0" result="hardAlpha"/>
<feMorphology radius="1.5" operator="dilate" in="SourceAlpha" result="effect3_dropShadow_388_321"/>
<feOffset/>
<feColorMatrix type="matrix" values="0 0 0 0 0.258073 0 0 0 0 0.515996 0 0 0 0 1 0 0 0 1 0"/>
<feBlend mode="normal" in2="effect2_dropShadow_388_321" result="effect3_dropShadow_388_321"/>
<feBlend mode="normal" in="SourceGraphic" in2="effect3_dropShadow_388_321" result="shape"/>
</filter>
<filter id="filter2_f_388_321" x="36.0583" y="27.4636" width="351.3" height="50.3215" filterUnits="userSpaceOnUse" color-interpolation-filters="sRGB">
<feFlood flood-opacity="0" result="BackgroundImageFix"/>
<feBlend mode="normal" in="SourceGraphic" in2="BackgroundImageFix" result="shape"/>
<feGaussianBlur stdDeviation="0.5" result="effect1_foregroundBlur_388_321"/>
</filter>
<filter id="filter3_ddd_388_321" x="43.7191" y="36.6245" width="35" height="36.5" filterUnits="userSpaceOnUse" color-interpolation-filters="sRGB">
<feFlood flood-opacity="0" result="BackgroundImageFix"/>
<feColorMatrix in="SourceAlpha" type="matrix" values="0 0 0 0 0 0 0 0 0 0 0 0 0 0 0 0 0 0 127 0" result="hardAlpha"/>
<feOffset dy="3"/>
<feGaussianBlur stdDeviation="3.75"/>
<feColorMatrix type="matrix" values="0 0 0 0 0.0784314 0 0 0 0 0.396078 0 0 0 0 0.992157 0 0 0 1 0"/>
<feBlend mode="normal" in2="BackgroundImageFix" result="effect1_dropShadow_388_321"/>
<feColorMatrix in="SourceAlpha" type="matrix" values="0 0 0 0 0 0 0 0 0 0 0 0 0 0 0 0 0 0 127 0" result="hardAlpha"/>
<feMorphology radius="6" operator="dilate" in="SourceAlpha" result="effect2_dropShadow_388_321"/>
<feOffset/>
<feComposite in2="hardAlpha" operator="out"/>
<feColorMatrix type="matrix" values="0 0 0 0 0.0784314 0 0 0 0 0.396078 0 0 0 0 0.992157 0 0 0 0.1 0"/>
<feBlend mode="normal" in2="effect1_dropShadow_388_321" result="effect2_dropShadow_388_321"/>
<feColorMatrix in="SourceAlpha" type="matrix" values="0 0 0 0 0 0 0 0 0 0 0 0 0 0 0 0 0 0 127 0" result="hardAlpha"/>
<feMorphology radius="1.5" operator="dilate" in="SourceAlpha" result="effect3_dropShadow_388_321"/>
<feOffset/>
<feColorMatrix type="matrix" values="0 0 0 0 0.258073 0 0 0 0 0.515996 0 0 0 0 1 0 0 0 1 0"/>
<feBlend mode="normal" in2="effect2_dropShadow_388_321" result="effect3_dropShadow_388_321"/>
<feBlend mode="normal" in="SourceGraphic" in2="effect3_dropShadow_388_321" result="shape"/>
</filter>
<filter id="filter4_d_388_321" x="0.899817" y="50.5852" width="421.6" height="94.8001" filterUnits="userSpaceOnUse" color-interpolation-filters="sRGB">
<feFlood flood-opacity="0" result="BackgroundImageFix"/>
<feColorMatrix in="SourceAlpha" type="matrix" values="0 0 0 0 0 0 0 0 0 0 0 0 0 0 0 0 0 0 127 0" result="hardAlpha"/>
<feMorphology radius="5.1" operator="dilate" in="SourceAlpha" result="effect1_dropShadow_388_321"/>
<feOffset dy="11.9"/>
<feGaussianBlur stdDeviation="8.5"/>
<feComposite in2="hardAlpha" operator="out"/>
<feColorMatrix type="matrix" values="0 0 0 0 0 0 0 0 0 0 0 0 0 0 0 0 0 0 0.08 0"/>
<feBlend mode="normal" in2="BackgroundImageFix" result="effect1_dropShadow_388_321"/>
<feBlend mode="normal" in="SourceGraphic" in2="effect1_dropShadow_388_321" result="shape"/>
</filter>
<filter id="filter5_ddd_388_321" x="30.7998" y="70.0852" width="35" height="36.5" filterUnits="userSpaceOnUse" color-interpolation-filters="sRGB">
<feFlood flood-opacity="0" result="BackgroundImageFix"/>
<feColorMatrix in="SourceAlpha" type="matrix" values="0 0 0 0 0 0 0 0 0 0 0 0 0 0 0 0 0 0 127 0" result="hardAlpha"/>
<feOffset dy="3"/>
<feGaussianBlur stdDeviation="3.75"/>
<feColorMatrix type="matrix" values="0 0 0 0 0.0784314 0 0 0 0 0.396078 0 0 0 0 0.992157 0 0 0 1 0"/>
<feBlend mode="normal" in2="BackgroundImageFix" result="effect1_dropShadow_388_321"/>
<feColorMatrix in="SourceAlpha" type="matrix" values="0 0 0 0 0 0 0 0 0 0 0 0 0 0 0 0 0 0 127 0" result="hardAlpha"/>
<feMorphology radius="6" operator="dilate" in="SourceAlpha" result="effect2_dropShadow_388_321"/>
<feOffset/>
<feComposite in2="hardAlpha" operator="out"/>
<feColorMatrix type="matrix" values="0 0 0 0 0.0784314 0 0 0 0 0.396078 0 0 0 0 0.992157 0 0 0 0.1 0"/>
<feBlend mode="normal" in2="effect1_dropShadow_388_321" result="effect2_dropShadow_388_321"/>
<feColorMatrix in="SourceAlpha" type="matrix" values="0 0 0 0 0 0 0 0 0 0 0 0 0 0 0 0 0 0 127 0" result="hardAlpha"/>
<feMorphology radius="1.5" operator="dilate" in="SourceAlpha" result="effect3_dropShadow_388_321"/>
<feOffset/>
<feColorMatrix type="matrix" values="0 0 0 0 0.258073 0 0 0 0 0.515996 0 0 0 0 1 0 0 0 1 0"/>
<feBlend mode="normal" in2="effect2_dropShadow_388_321" result="effect3_dropShadow_388_321"/>
<feBlend mode="normal" in="SourceGraphic" in2="effect3_dropShadow_388_321" result="shape"/>
</filter>
</defs>
</svg>
