<svg width="116" height="100" viewBox="0 0 116 100" fill="none" xmlns="http://www.w3.org/2000/svg">
<path d="M43.3765 24.979H86.9009C84.4339 29.2799 82.1281 33.3003 79.7501 37.4484H50.8094C48.4029 41.5981 46.03 45.6874 43.5579 49.9496C45.9275 54.0708 48.2854 58.1702 50.7104 62.3871H79.6762C82.0525 66.515 84.3969 70.5858 86.9093 74.9505H43.3665C38.6172 66.7249 33.836 58.4472 28.9457 49.9765C33.7554 41.6485 38.5668 33.3137 43.3799 24.9807L43.3765 24.979Z" fill="white"/>
<path d="M21.7529 12.33C24.3862 16.8878 26.6769 20.8528 29.0095 24.8883C24.1914 33.2667 19.4606 41.4956 14.5887 49.9714C19.3497 58.2642 24.141 66.609 29.0078 75.0882C26.6701 79.1271 24.3778 83.087 21.7613 87.6062C14.3754 74.8396 7.2381 62.5013 0 49.9899C7.17261 37.5743 14.32 25.199 21.7546 12.33H21.7529Z" fill="white"/>
<path d="M86.9429 74.9891C89.5476 79.4965 91.8702 83.5169 94.2246 87.5928C91.7996 91.7912 89.43 95.8922 87.0571 100H29.0347C31.5269 95.6706 33.8092 91.7022 36.2056 87.5357H79.6242C82.024 83.4229 84.3315 79.468 86.9462 74.9891H86.9429Z" fill="white"/>
<path d="M86.9412 24.9958C84.3516 20.532 82.0609 16.5855 79.6678 12.461H36.2493C33.8595 8.31962 31.5705 4.35462 29.0565 0H87.0823C89.3746 3.96668 91.7425 8.06267 94.2179 12.3451C91.9071 16.3621 89.5912 20.3876 86.9395 24.9975L86.9412 24.9958Z" fill="white"/>
<path d="M101.394 75.11C98.8009 70.5706 96.5623 66.6527 94.2011 62.518C96.5354 58.4069 98.8698 54.2975 101.322 49.9765C98.9756 45.8435 96.6093 41.6753 94.1759 37.3896C96.5338 33.3154 98.8211 29.3605 101.406 24.895C106.39 33.4985 111.121 41.6652 115.926 49.9563C111.139 58.2423 106.403 66.4411 101.396 75.11H101.394Z" fill="white"/>
</svg>
