<?xml version="1.0" encoding="UTF-8"?>
<svg id="Layer_1" data-name="Layer 1" xmlns="http://www.w3.org/2000/svg" viewBox="0 0 262.4 226.35">
  <defs>
    <style>
      .cls-1 {
        fill: #421b5e;
      }

      .cls-1, .cls-2 {
        stroke-width: 0px;
      }

      .cls-2 {
        fill: #b23fda;
      }
    </style>
  </defs>
  <g id="IgaVro">
    <g>
      <path class="cls-1" d="m98.19,56.54h98.52c-5.58,9.73-10.8,18.83-16.19,28.22h-65.51c-5.45,9.39-10.82,18.65-16.41,28.3,5.37,9.33,10.7,18.61,16.19,28.15h65.56c5.38,9.34,10.68,18.56,16.37,28.44h-98.56c-10.75-18.62-21.57-37.36-32.64-56.53,10.89-18.85,21.78-37.72,32.67-56.58Z"/>
      <path class="cls-2" d="m49.24,27.91c5.96,10.32,11.15,19.29,16.42,28.43-10.9,18.97-21.61,37.59-32.64,56.78,10.78,18.77,21.62,37.66,32.64,56.85-5.29,9.14-10.48,18.11-16.4,28.34C32.54,169.4,16.38,141.47,0,113.15c16.23-28.1,32.41-56.11,49.24-85.24Z"/>
      <path class="cls-1" d="m196.8,169.74c5.89,10.2,11.15,19.3,16.48,28.53-5.49,9.5-10.85,18.79-16.23,28.09H65.72c5.64-9.8,10.81-18.78,16.23-28.21h98.28c5.43-9.31,10.66-18.26,16.57-28.4Z"/>
      <path class="cls-1" d="m196.8,56.58c-5.86-10.1-11.05-19.04-16.46-28.37h-98.28c-5.41-9.37-10.59-18.35-16.28-28.21h131.34c5.19,8.98,10.55,18.25,16.15,27.94-5.23,9.09-10.47,18.2-16.48,28.64Z"/>
      <path class="cls-2" d="m229.51,170.02c-5.87-10.27-10.94-19.14-16.28-28.5,5.28-9.31,10.57-18.61,16.12-28.39-5.31-9.36-10.67-18.79-16.17-28.49,5.34-9.22,10.52-18.17,16.36-28.28,11.28,19.47,21.99,37.96,32.87,56.73-10.84,18.76-21.55,37.31-32.89,56.94Z"/>
    </g>
  </g>
</svg>