<svg width="189" height="62" viewBox="0 0 189 62" fill="none" xmlns="http://www.w3.org/2000/svg">
<path d="M24.2065 49.7043C20.941 49.7043 17.8506 49.128 14.9382 47.9784C12.0258 46.8288 9.4753 45.1907 7.29247 43.067C5.10672 40.9433 3.37622 38.3779 2.09512 35.3708C0.814022 32.3637 0.174927 28.9793 0.174927 25.2175C0.174927 21.4557 0.825691 18.0624 2.12722 15.0319C3.42874 12.0014 5.18261 9.4243 7.3917 7.30061C9.59787 5.17691 12.1455 3.54172 15.0374 2.3892C17.9265 1.23959 20.941 0.66333 24.0752 0.66333C27.2093 0.66333 30.1538 1.11673 32.6489 2.02355C35.1411 2.93036 37.2597 4.12384 39.0048 5.60691C40.747 7.08999 42.1594 8.75735 43.242 10.6178C44.3218 12.4753 45.1068 14.3562 45.5912 16.2576L36.9854 18.978C36.7198 17.8723 36.2792 16.7431 35.6605 15.5935C35.0418 14.4439 34.2131 13.426 33.1771 12.5396C32.1382 11.6562 30.8717 10.9249 29.3717 10.3487C27.8718 9.77533 26.1062 9.48573 24.0752 9.48573C22.3096 9.48573 20.5675 9.8075 18.8457 10.4481C17.124 11.0887 15.5802 12.0511 14.2116 13.3353C12.8429 14.6195 11.7398 16.2546 10.9023 18.2467C10.0648 20.2388 9.64456 22.5614 9.64456 25.2145C9.64456 27.8677 10.0531 29.9592 10.8702 31.884C11.6873 33.8088 12.7671 35.4235 14.1153 36.7281C15.4606 38.0327 17.0043 39.0273 18.7494 39.7147C20.4916 40.4022 22.3125 40.7444 24.2123 40.7444C26.1121 40.7444 27.9535 40.446 29.4739 39.8493C30.9972 39.2525 32.287 38.4891 33.3464 37.5589C34.4057 36.6287 35.2665 35.6019 35.929 34.4728C36.5914 33.3436 37.0758 32.2292 37.3852 31.1205L45.9239 33.7093C45.4832 35.5229 44.7216 37.3716 43.6389 39.2496C42.5563 41.1305 41.1234 42.8447 39.3345 44.3921C37.5457 45.9425 35.4066 47.212 32.9144 48.2095C30.4194 49.2041 27.5187 49.7014 24.2094 49.7014L24.2065 49.7043Z" fill="black"/>
<path d="M49.2972 39.817C49.2972 38.3573 49.5511 37.0644 50.0589 35.9352C50.5667 34.8061 51.2612 33.8233 52.1454 32.9837C53.0267 32.1442 54.0539 31.4802 55.2241 30.9917C56.3914 30.5061 57.6609 30.1521 59.0295 29.9298L67.04 28.7363C67.968 28.6047 68.6071 28.3268 68.9602 27.9056C69.3133 27.4844 69.4884 26.9871 69.4884 26.4137C69.4884 25.2641 69.0361 24.2696 68.1315 23.4271C67.2268 22.5876 65.8465 22.1663 63.9934 22.1663C62.1403 22.1663 60.5616 22.6958 59.5256 23.7576C58.4867 24.8195 57.9031 26.0598 57.7717 27.4726L49.9597 25.8141C50.091 24.5328 50.4908 23.2487 51.1503 21.9645C51.8127 20.6833 52.7174 19.5307 53.8643 18.5128C55.0111 17.4948 56.4235 16.667 58.1015 16.0234C59.7795 15.3828 61.7201 15.061 63.9263 15.061C66.4856 15.061 68.6684 15.4033 70.4806 16.0907C72.2899 16.7781 73.7578 17.682 74.8842 18.8111C76.0107 19.9403 76.8248 21.2566 77.3326 22.7602C77.8403 24.2637 78.0943 25.8345 78.0943 27.4726V43.532C78.0943 44.4183 78.138 45.3573 78.2256 46.3519C78.3131 47.3465 78.4007 48.1333 78.4911 48.7067H70.4135C70.3259 48.265 70.2471 47.6565 70.1829 46.8814C70.1158 46.1091 70.0837 45.41 70.0837 44.7928C69.2433 46.0769 68.041 47.2031 66.4768 48.1772C64.9097 49.1484 62.9108 49.6369 60.4857 49.6369C58.764 49.6369 57.2085 49.359 55.8195 48.8061C54.4304 48.2533 53.2485 47.5249 52.2768 46.6151C51.305 45.7083 50.5667 44.6699 50.0589 43.4969C49.5511 42.3239 49.2972 41.0982 49.2972 39.8141V39.817ZM62.3388 43.0698C63.2668 43.0698 64.1597 42.9499 65.0206 42.7042C65.8815 42.4614 66.6431 42.0401 67.3056 41.4434C67.968 40.8467 68.4962 40.0715 68.8931 39.1208C69.29 38.1701 69.4884 36.9649 69.4884 35.5053V34.0456L62.1403 35.1747C60.9935 35.3531 60.0334 35.7627 59.2601 36.4033C58.4867 37.0439 58.1015 38.0063 58.1015 39.2905C58.1015 40.2645 58.4546 41.1392 59.1608 41.9114C59.867 42.6866 60.9264 43.0727 62.3388 43.0727V43.0698Z" fill="black"/>
<path d="M91.0687 37.9566C91.1563 39.2407 91.6874 40.3903 92.6562 41.4083C93.6251 42.4263 95.0842 42.9352 97.0248 42.9352C98.481 42.9352 99.5608 42.6164 100.27 41.9729C100.976 41.3322 101.329 40.5688 101.329 39.6824C101.329 38.9307 101.064 38.2783 100.535 37.7255C100.007 37.1726 99.0997 36.7631 97.8215 36.4969L93.5171 35.5023C90.3392 34.7944 88.0221 33.5688 86.5659 31.8195C85.1097 30.0731 84.3802 28.0489 84.3802 25.7468C84.3802 24.2871 84.6895 22.9035 85.3082 21.5988C85.9268 20.2942 86.776 19.1651 87.8558 18.2144C88.9355 17.2637 90.2166 16.5002 91.6962 15.924C93.1757 15.3506 94.7953 15.061 96.5608 15.061C98.8545 15.061 100.798 15.3828 102.386 16.0234C103.973 16.664 105.266 17.4743 106.258 18.4455C107.25 19.4196 107.989 20.4463 108.476 21.5316C108.96 22.6168 109.246 23.5997 109.337 24.4831L101.989 26.1417C101.901 25.6561 101.758 25.1588 101.56 24.6498C101.361 24.1409 101.04 23.667 100.6 23.2223C100.159 22.7806 99.6162 22.4267 98.9771 22.1605C98.338 21.8943 97.553 21.7627 96.6279 21.7627C95.4811 21.7627 94.4976 22.0727 93.6805 22.6929C92.8634 23.313 92.4549 24.0853 92.4549 25.0155C92.4549 25.8111 92.7292 26.4547 93.2837 26.9403C93.8352 27.4288 94.5531 27.7593 95.4344 27.9348L100.069 28.9294C103.29 29.5934 105.707 30.8308 107.317 32.6444C108.928 34.458 109.734 36.5583 109.734 38.9482C109.734 40.2763 109.48 41.5809 108.972 42.8621C108.464 44.1463 107.682 45.2959 106.623 46.3139C105.564 47.3318 104.239 48.1509 102.651 48.7681C101.061 49.3882 99.2077 49.6983 97.089 49.6983C94.6173 49.6983 92.5424 49.3444 90.8674 48.6365C89.1894 47.9286 87.8237 47.0656 86.7644 46.0477C85.705 45.0297 84.92 43.9357 84.4152 42.7627C83.9074 41.5926 83.6098 40.5395 83.5222 39.6122L91.0687 37.9536V37.9566Z" fill="black"/>
<path d="M127.015 16.0588H133.57V23.8895H127.015V37.559C127.015 38.9748 127.333 39.9606 127.975 40.5134C128.615 41.0663 129.575 41.3413 130.856 41.3413C131.384 41.3413 131.915 41.3208 132.443 41.274C132.971 41.2301 133.348 41.1628 133.57 41.075V48.3734C133.173 48.5489 132.566 48.7274 131.749 48.9029C130.932 49.0784 129.884 49.1691 128.603 49.1691C125.425 49.1691 122.909 48.2857 121.056 46.513C119.203 44.7433 118.275 42.2656 118.275 39.0801V23.8837H112.383V16.0529H114.038C115.76 16.0529 117.026 15.5556 117.843 14.5611C118.661 13.5665 119.069 12.3379 119.069 10.8782V6.30029H127.012V16.0558L127.015 16.0588Z" fill="black"/>
<path d="M138.796 48.7068V0.66333H147.6V48.7068H138.796Z" fill="black"/>
<path d="M158.261 61.5805L165.939 44.5939L152.103 16.0586H161.967L170.64 35.1689L178.65 16.0586H188.05L167.593 61.5805H158.258H158.261Z" fill="black"/>
</svg>
