<svg width="77" height="67" viewBox="0 0 77 67" fill="none" xmlns="http://www.w3.org/2000/svg">
<path d="M28.6541 17.1196H57.4044C55.776 19.9658 54.2527 22.6278 52.6798 25.3745H33.5625C31.9721 28.1213 30.405 30.83 28.7737 33.6528C30.3408 36.382 31.8962 39.0966 33.4983 41.8873H52.6302C54.2002 44.6194 55.7468 47.3165 57.4073 50.2065H28.6453C25.5082 44.7598 22.3507 39.278 19.1202 33.6704C22.2982 28.1564 25.4761 22.6366 28.6541 17.1196Z" fill="black"/>
<path d="M14.3693 8.74487C16.1086 11.7637 17.6231 14.3876 19.161 17.0612C15.9802 22.6103 12.8548 28.057 9.63596 33.6705C12.7818 39.1611 15.9452 44.6868 19.161 50.3002C17.6173 52.9739 16.1027 55.5978 14.3751 58.5902C9.49588 50.1364 4.78296 41.9664 0 33.6822C4.73627 25.4624 9.45796 17.2689 14.3693 8.74779V8.74487Z" fill="black"/>
<path d="M57.4306 50.2329C59.1494 53.2166 60.6844 55.8785 62.2398 58.5785C60.6377 61.3574 59.0735 64.0749 57.5035 66.7954H19.1756C20.8215 63.9287 22.3302 61.3019 23.9119 58.5434H52.5922C54.1767 55.82 55.703 53.202 57.4276 50.2358L57.4306 50.2329Z" fill="black"/>
<path d="M57.4306 17.1313C55.7205 14.1769 54.2059 11.5618 52.6272 8.83255H23.9469C22.3682 6.09164 20.8565 3.46481 19.196 0.580566H57.524C59.0385 3.20739 60.6027 5.91905 62.2369 8.75357C60.7107 11.4126 59.1815 14.0774 57.4277 17.1313H57.4306Z" fill="black"/>
<path d="M66.9761 50.3118C65.2631 47.3076 63.7835 44.7129 62.2252 41.9749C63.766 39.2516 65.3098 36.5311 66.9294 33.6703C65.3798 30.9323 63.8157 28.1739 62.2106 25.3364C63.769 22.6394 65.2806 20.0213 66.9848 17.064C70.2766 22.7593 73.402 28.168 76.577 33.6586C73.4137 39.1463 70.2883 44.5725 66.979 50.3147L66.9761 50.3118Z" fill="black"/>
</svg>
