<svg width="409" height="171" viewBox="0 0 409 171" fill="none" xmlns="http://www.w3.org/2000/svg">
<rect width="409" height="170.698" rx="13.908" fill="url(#paint0_linear_441_93)"/>
<path d="M20.281 30.4215H38.6214V26.1963H46.3651V34.2242H54.5164V22.8161H61.445V34.2242H74.8946H95.2728V30.4215H102.609V37.6044H118.504V22.8161H124.21V30.4215H131.954V34.2242H140.105V22.8161H153.554V34.2242H180.046V28.7314H189.013V34.2242H203.277V22.8161H209.798V20.281H217.95V30.4215H225.286V20.281H232.214V22.8161H239.143V26.1963H246.072V30.4215H260.744V20.281H267.672V31.2665H281.937V34.2242H288.866V22.8161H303.131V26.1963H310.467V34.2242H318.21V30.4215H323.916V34.2242H338.996V22.8161H347.147V30.4215H352.038V22.8161H361.005V30.4215H367.526V22.8161H374.862V32.9566H380.16V28.7314H388.719" stroke="#1465FD" stroke-width="1.69008"/>
<path d="M38.6214 30.4215H20.281V42.6746H388.719V28.7314H380.16V32.9566H374.862V22.8161H367.526V30.4215H361.005V22.8161H352.038V30.4215H347.147V22.8161H338.996V34.2242H323.916V30.4215H318.21V34.2242H310.467V26.1963H303.131V22.8161H288.866V34.2242H281.937V31.2665H267.672V20.281H260.744V30.4215H246.072V26.1963H239.143V22.8161H232.214V20.281H225.286V30.4215H217.95V20.281H209.798V22.8161H203.277V34.2242H189.013V28.7314H180.046V34.2242H153.554V22.8161H140.105V34.2242H131.954V30.4215H124.21V22.8161H118.504V37.6044H102.609V30.4215H95.2728V34.2242H74.8946H61.445V22.8161H54.5164V34.2242H46.3651V26.1963H38.6214V30.4215Z" fill="url(#paint1_linear_441_93)"/>
<path d="M57.4628 56.6179V130.137" stroke="#1465FD" stroke-opacity="0.2" stroke-width="0.845041"/>
<path d="M130.981 56.6179V130.137" stroke="#1465FD" stroke-opacity="0.2" stroke-width="0.845041"/>
<path d="M204.5 56.6179V130.137" stroke="#1465FD" stroke-opacity="0.2" stroke-width="0.845041"/>
<path d="M278.019 56.6179V130.137" stroke="#1465FD" stroke-opacity="0.2" stroke-width="0.845041"/>
<path d="M351.537 56.6179V130.137" stroke="#1465FD" stroke-opacity="0.2" stroke-width="0.845041"/>
<path d="M46.0907 143.125L43.8376 148.432H43.2118L45.4398 143.308H42.4107V142.791H46.0907V143.125ZM47.9126 144.552C47.9126 144.86 47.6956 145.077 47.3869 145.077C47.0865 145.077 46.8612 144.86 46.8612 144.552C46.8612 144.243 47.0865 144.017 47.3869 144.017C47.6956 144.017 47.9126 144.243 47.9126 144.552ZM47.9126 147.948C47.9126 148.248 47.6956 148.474 47.3869 148.474C47.0865 148.474 46.8612 148.248 46.8612 147.948C46.8612 147.631 47.0865 147.414 47.3869 147.414C47.6956 147.414 47.9126 147.631 47.9126 147.948ZM48.8874 145.62C48.8874 143.75 49.605 142.707 50.8901 142.707C52.1669 142.707 52.8929 143.75 52.8929 145.62C52.8929 147.489 52.1836 148.515 50.8901 148.515C49.5883 148.515 48.8874 147.489 48.8874 145.62ZM49.4882 145.62C49.4882 147.172 49.9639 147.998 50.8901 147.998C51.7997 147.998 52.2921 147.18 52.2921 145.62C52.2921 144.051 51.7997 143.225 50.8901 143.225C49.9805 143.225 49.4882 144.043 49.4882 145.62ZM55.5968 142.716C56.7234 142.716 57.5579 143.525 57.5579 144.56C57.5579 145.253 57.2825 145.686 56.8068 146.287L55.1129 148.432H54.4453L56.1393 146.279C55.914 146.371 55.6803 146.404 55.4717 146.404C54.4202 146.404 53.6275 145.678 53.6275 144.577C53.6275 143.525 54.462 142.716 55.5968 142.716ZM55.5885 143.2C54.7958 143.2 54.2283 143.775 54.2283 144.56C54.2283 145.403 54.7958 145.962 55.5885 145.962C56.3646 145.962 56.957 145.478 56.957 144.577C56.957 143.775 56.3646 143.2 55.5885 143.2ZM62.2552 146.229H60.9117V148.432H60.2858V142.44H62.2552C63.4902 142.44 64.3331 143.116 64.3331 144.326C64.3331 145.536 63.4902 146.229 62.2552 146.229ZM62.2469 142.974H60.9117V145.695H62.2469C63.1398 145.695 63.7072 145.202 63.7072 144.326C63.7072 143.458 63.1398 142.974 62.2469 142.974ZM68.0514 148.432L65.8817 143.35V148.432H65.2976V142.44H66.107L68.3268 147.664L70.5632 142.44H71.3643V148.432H70.7885V143.35L68.6021 148.432H68.0514Z" fill="white"/>
<path d="M119.609 145.66L117.356 150.967H116.73L118.958 145.843H115.929V145.326H119.609V145.66ZM121.431 147.086C121.431 147.395 121.214 147.612 120.905 147.612C120.605 147.612 120.38 147.395 120.38 147.086C120.38 146.778 120.605 146.552 120.905 146.552C121.214 146.552 121.431 146.778 121.431 147.086ZM121.431 150.483C121.431 150.783 121.214 151.009 120.905 151.009C120.605 151.009 120.38 150.783 120.38 150.483C120.38 150.166 120.605 149.949 120.905 149.949C121.214 149.949 121.431 150.166 121.431 150.483ZM123.816 150.967H123.24V145.826H122.131V145.326H123.816V150.967ZM124.957 148.155C124.957 146.285 125.674 145.242 126.959 145.242C128.236 145.242 128.962 146.285 128.962 148.155C128.962 150.024 128.253 151.05 126.959 151.05C125.658 151.05 124.957 150.024 124.957 148.155ZM125.557 148.155C125.557 149.707 126.033 150.533 126.959 150.533C127.869 150.533 128.361 149.715 128.361 148.155C128.361 146.586 127.869 145.76 126.959 145.76C126.05 145.76 125.557 146.577 125.557 148.155ZM133.777 148.764H132.434V150.967H131.808V144.975H133.777C135.012 144.975 135.855 145.651 135.855 146.861C135.855 148.071 135.012 148.764 133.777 148.764ZM133.769 145.509H132.434V148.23H133.769C134.662 148.23 135.229 147.737 135.229 146.861C135.229 145.993 134.662 145.509 133.769 145.509ZM139.573 150.967L137.404 145.885V150.967H136.82V144.975H137.629L139.849 150.199L142.085 144.975H142.886V150.967H142.31V145.885L140.124 150.967H139.573Z" fill="white"/>
<path d="M193.128 145.66L190.875 150.967H190.249L192.477 145.843H189.448V145.326H193.128V145.66ZM194.95 147.086C194.95 147.395 194.733 147.612 194.424 147.612C194.124 147.612 193.898 147.395 193.898 147.086C193.898 146.778 194.124 146.552 194.424 146.552C194.733 146.552 194.95 146.778 194.95 147.086ZM194.95 150.483C194.95 150.783 194.733 151.009 194.424 151.009C194.124 151.009 193.898 150.783 193.898 150.483C193.898 150.166 194.124 149.949 194.424 149.949C194.733 149.949 194.95 150.166 194.95 150.483ZM197.335 150.967H196.759V145.826H195.649V145.326H197.335V150.967ZM199.885 150.967H199.31V145.826H198.2V145.326H199.885V150.967ZM204.99 148.764H203.646V150.967H203.02V144.975H204.99C206.225 144.975 207.067 145.651 207.067 146.861C207.067 148.071 206.225 148.764 204.99 148.764ZM204.981 145.509H203.646V148.23H204.981C205.874 148.23 206.442 147.737 206.442 146.861C206.442 145.993 205.874 145.509 204.981 145.509ZM210.786 150.967L208.616 145.885V150.967H208.032V144.975H208.841L211.061 150.199L213.298 144.975H214.099V150.967H213.523V145.885L211.336 150.967H210.786Z" fill="white"/>
<path d="M266.646 145.66L264.393 150.967H263.768L265.996 145.843H262.966V145.326H266.646V145.66ZM268.468 147.086C268.468 147.395 268.251 147.612 267.943 147.612C267.642 147.612 267.417 147.395 267.417 147.086C267.417 146.778 267.642 146.552 267.943 146.552C268.251 146.552 268.468 146.778 268.468 147.086ZM268.468 150.483C268.468 150.783 268.251 151.009 267.943 151.009C267.642 151.009 267.417 150.783 267.417 150.483C267.417 150.166 267.642 149.949 267.943 149.949C268.251 149.949 268.468 150.166 268.468 150.483ZM270.853 150.967H270.278V145.826H269.168V145.326H270.853V150.967ZM275.432 150.449V150.967H272.027V150.633L273.83 148.597C274.514 147.821 274.764 147.404 274.764 146.861C274.764 146.227 274.297 145.76 273.638 145.76C272.953 145.76 272.469 146.235 272.469 146.936H271.902C271.902 145.952 272.628 145.242 273.663 145.242C274.647 145.242 275.373 145.902 275.373 146.811C275.373 147.42 275.131 147.879 274.264 148.847L272.887 150.449H275.432ZM280.22 148.764H278.876V150.967H278.25V144.975H280.22C281.455 144.975 282.297 145.651 282.297 146.861C282.297 148.071 281.455 148.764 280.22 148.764ZM280.211 145.509H278.876V148.23H280.211C281.104 148.23 281.672 147.737 281.672 146.861C281.672 145.993 281.104 145.509 280.211 145.509ZM286.016 150.967L283.846 145.885V150.967H283.262V144.975H284.071L286.291 150.199L288.527 144.975H289.329V150.967H288.753V145.885L286.566 150.967H286.016Z" fill="white"/>
<path d="M340.165 145.66L337.912 150.967H337.286L339.514 145.843H336.485V145.326H340.165V145.66ZM341.987 147.086C341.987 147.395 341.77 147.612 341.461 147.612C341.161 147.612 340.936 147.395 340.936 147.086C340.936 146.778 341.161 146.552 341.461 146.552C341.77 146.552 341.987 146.778 341.987 147.086ZM341.987 150.483C341.987 150.783 341.77 151.009 341.461 151.009C341.161 151.009 340.936 150.783 340.936 150.483C340.936 150.166 341.161 149.949 341.461 149.949C341.77 149.949 341.987 150.166 341.987 150.483ZM344.372 150.967H343.796V145.826H342.686V145.326H344.372V150.967ZM347.335 151.042C346.216 151.042 345.449 150.383 345.424 149.406H345.991C346.024 150.116 346.55 150.566 347.335 150.566C348.144 150.566 348.636 150.124 348.636 149.415C348.636 148.739 348.086 148.305 347.218 148.305H346.659V147.821H347.201C347.894 147.821 348.378 147.379 348.378 146.744C348.378 146.135 347.927 145.718 347.284 145.718C346.617 145.718 346.175 146.135 346.141 146.786H345.582C345.607 145.902 346.342 145.242 347.301 145.242C348.303 145.242 348.978 145.851 348.978 146.719C348.978 147.303 348.628 147.771 348.01 148.029C348.787 148.221 349.237 148.722 349.237 149.406C349.237 150.374 348.469 151.042 347.335 151.042ZM354.129 148.764H352.786V150.967H352.16V144.975H354.129C355.364 144.975 356.207 145.651 356.207 146.861C356.207 148.071 355.364 148.764 354.129 148.764ZM354.121 145.509H352.786V148.23H354.121C355.014 148.23 355.581 147.737 355.581 146.861C355.581 145.993 355.014 145.509 354.121 145.509ZM359.925 150.967L357.756 145.885V150.967H357.172V144.975H357.981L360.201 150.199L362.437 144.975H363.238V150.967H362.663V145.885L360.476 150.967H359.925Z" fill="white"/>
<path d="M380.948 29.3561C379.83 29.3561 379.062 28.6969 379.037 27.7205H379.605C379.638 28.4298 380.164 28.8805 380.948 28.8805C381.758 28.8805 382.25 28.4382 382.25 27.7289C382.25 27.0529 381.699 26.619 380.832 26.619H380.272V26.135H380.815C381.508 26.135 381.992 25.6927 381.992 25.0585C381.992 24.4494 381.541 24.0321 380.898 24.0321C380.231 24.0321 379.788 24.4494 379.755 25.1003H379.196C379.221 24.2157 379.955 23.5565 380.915 23.5565C381.916 23.5565 382.592 24.1657 382.592 25.0335C382.592 25.6176 382.242 26.085 381.624 26.3436C382.4 26.5356 382.851 27.0363 382.851 27.7205C382.851 28.6885 382.083 29.3561 380.948 29.3561ZM383.78 26.4688C383.78 24.5996 384.497 23.5565 385.782 23.5565C387.059 23.5565 387.785 24.5996 387.785 26.4688C387.785 28.338 387.076 29.3645 385.782 29.3645C384.48 29.3645 383.78 28.338 383.78 26.4688ZM384.38 26.4688C384.38 28.0209 384.856 28.8471 385.782 28.8471C386.692 28.8471 387.184 28.0293 387.184 26.4688C387.184 24.9 386.692 24.0739 385.782 24.0739C384.873 24.0739 384.38 24.8916 384.38 26.4688Z" fill="white"/>
<path d="M382.442 61.7348V62.2522H379.037V61.9184L380.84 59.8823C381.524 59.1062 381.775 58.689 381.775 58.1466C381.775 57.5124 381.307 57.0451 380.648 57.0451C379.964 57.0451 379.48 57.5207 379.48 58.2217H378.912C378.912 57.237 379.638 56.5277 380.673 56.5277C381.658 56.5277 382.384 57.1869 382.384 58.0965C382.384 58.7057 382.142 59.1646 381.274 60.1326L379.897 61.7348H382.442ZM383.266 59.44C383.266 57.5708 383.984 56.5277 385.269 56.5277C386.546 56.5277 387.272 57.5708 387.272 59.44C387.272 61.3092 386.562 62.3356 385.269 62.3356C383.967 62.3356 383.266 61.3092 383.266 59.44ZM383.867 59.44C383.867 60.9921 384.343 61.8183 385.269 61.8183C386.178 61.8183 386.671 61.0005 386.671 59.44C386.671 57.8712 386.178 57.0451 385.269 57.0451C384.359 57.0451 383.867 57.8628 383.867 59.44Z" fill="white"/>
<path d="M380.414 95.2231H379.839V90.0828H378.729V89.5821H380.414V95.2231ZM381.555 92.411C381.555 90.5417 382.272 89.4986 383.558 89.4986C384.834 89.4986 385.56 90.5417 385.56 92.411C385.56 94.2802 384.851 95.3066 383.558 95.3066C382.256 95.3066 381.555 94.2802 381.555 92.411ZM382.156 92.411C382.156 93.9631 382.631 94.7892 383.558 94.7892C384.467 94.7892 384.959 93.9714 384.959 92.411C384.959 90.8421 384.467 90.016 383.558 90.016C382.648 90.016 382.156 90.8338 382.156 92.411Z" fill="white"/>
<path d="M379.004 125.382C379.004 123.513 379.722 122.47 381.007 122.47C382.284 122.47 383.01 123.513 383.01 125.382C383.01 127.251 382.3 128.278 381.007 128.278C379.705 128.278 379.004 127.251 379.004 125.382ZM379.605 125.382C379.605 126.934 380.081 127.76 381.007 127.76C381.916 127.76 382.409 126.943 382.409 125.382C382.409 123.813 381.916 122.987 381.007 122.987C380.097 122.987 379.605 123.805 379.605 125.382ZM383.861 125.382C383.861 123.513 384.579 122.47 385.864 122.47C387.141 122.47 387.866 123.513 387.866 125.382C387.866 127.251 387.157 128.278 385.864 128.278C384.562 128.278 383.861 127.251 383.861 125.382ZM384.462 125.382C384.462 126.934 384.937 127.76 385.864 127.76C386.773 127.76 387.266 126.943 387.266 125.382C387.266 123.813 386.773 122.987 385.864 122.987C384.954 122.987 384.462 123.805 384.462 125.382Z" fill="white"/>
<defs>
<linearGradient id="paint0_linear_441_93" x1="0" y1="0" x2="28.3108" y2="145.237" gradientUnits="userSpaceOnUse">
<stop stop-color="#0A1223"/>
<stop offset="1" stop-color="#030812"/>
</linearGradient>
<linearGradient id="paint1_linear_441_93" x1="204.5" y1="20.281" x2="204.5" y2="43.0971" gradientUnits="userSpaceOnUse">
<stop stop-color="#1465FD" stop-opacity="0.4"/>
<stop offset="1" stop-color="#060C19" stop-opacity="0"/>
</linearGradient>
</defs>
</svg>
