<svg width="193" height="49" viewBox="0 0 193 49" fill="none" xmlns="http://www.w3.org/2000/svg">
<path d="M19.4767 11.8224H39.0189C37.9121 13.757 36.8766 15.5664 35.8075 17.4334H22.8131C21.7321 19.3004 20.6669 21.1416 19.5581 23.0603C20.6232 24.9154 21.6805 26.7606 22.7695 28.6575H35.7738C36.8409 30.5146 37.8922 32.3478 39.0209 34.3122H19.4708C17.3384 30.61 15.1922 26.8839 12.9964 23.0723C15.1565 19.3243 17.3166 15.5724 19.4767 11.8224Z" fill="white"/>
<path d="M9.76712 6.12982C10.9493 8.18176 11.9788 9.96528 13.0241 11.7826C10.8621 15.5544 8.73764 19.2567 6.54976 23.0723C8.68805 26.8043 10.8383 30.5603 13.0241 34.3759C11.9748 36.1932 10.9454 37.9767 9.77108 40.0107C6.45455 34.2645 3.25108 28.7111 0 23.0802C3.21934 17.4931 6.42877 11.9238 9.76712 6.13181V6.12982Z" fill="white"/>
<path d="M39.0367 34.3301C40.2051 36.3582 41.2484 38.1676 42.3057 40.0028C41.2167 41.8917 40.1535 43.7389 39.0863 45.588H13.0341C14.1528 43.6394 15.1783 41.8539 16.2534 39.9789H35.748C36.825 38.1278 37.8625 36.3483 39.0348 34.3321L39.0367 34.3301Z" fill="white"/>
<path d="M39.0368 11.8303C37.8744 9.82214 36.8449 8.04458 35.7718 6.18949H16.2772C15.2041 4.32643 14.1766 2.54092 13.048 0.580444H39.1002C40.1297 2.36595 41.1929 4.20912 42.3037 6.1358C41.2663 7.94318 40.2269 9.75454 39.0348 11.8303H39.0368Z" fill="white"/>
<path d="M45.525 34.3838C44.3606 32.3418 43.355 30.5782 42.2957 28.7171C43.3431 26.866 44.3924 25.0168 45.4933 23.0723C44.44 21.2112 43.3768 19.3362 42.2858 17.4076C43.3451 15.5743 44.3725 13.7948 45.531 11.7846C47.7684 15.6559 49.8928 19.3323 52.051 23.0643C49.9008 26.7944 47.7764 30.4827 45.527 34.3858L45.525 34.3838Z" fill="white"/>
<path d="M81.0271 40.0883C78.8074 40.0883 76.7068 39.6966 74.7272 38.9152C72.7476 38.1338 71.014 37.0203 69.5303 35.5768C68.0446 34.1333 66.8683 32.3895 65.9975 30.3456C65.1267 28.3016 64.6923 26.0011 64.6923 23.4441C64.6923 20.8871 65.1347 18.5807 66.0193 16.5208C66.904 14.4609 68.0961 12.7092 69.5977 11.2657C71.0973 9.82215 72.8289 8.71068 74.7947 7.92729C76.7584 7.14588 78.8074 6.75418 80.9378 6.75418C83.0682 6.75418 85.0696 7.06237 86.7655 7.67875C88.4595 8.29513 89.8996 9.10636 91.0858 10.1144C92.27 11.1225 93.23 12.2559 93.9659 13.5204C94.6998 14.783 95.2334 16.0615 95.5627 17.3539L89.7131 19.203C89.5326 18.4515 89.2331 17.684 88.8126 16.9026C88.3921 16.1211 87.8287 15.4292 87.1246 14.8267C86.4184 14.2263 85.5575 13.7292 84.538 13.3375C83.5184 12.9478 82.3184 12.7509 80.9378 12.7509C79.7377 12.7509 78.5535 12.9697 77.3832 13.4051C76.2129 13.8405 75.1636 14.4947 74.2333 15.3676C73.303 16.2404 72.5532 17.3519 71.9839 18.706C71.4147 20.06 71.129 21.6387 71.129 23.4421C71.129 25.2455 71.4067 26.6672 71.9621 27.9755C72.5175 29.2838 73.2514 30.3814 74.1679 31.2681C75.0823 32.1549 76.1316 32.831 77.3178 33.2982C78.502 33.7655 79.7397 33.9981 81.031 33.9981C82.3223 33.9981 83.574 33.7953 84.6074 33.3897C85.6428 32.9841 86.5196 32.4651 87.2396 31.8328C87.9597 31.2005 88.5448 30.5026 88.9951 29.7351C89.4453 28.9677 89.7746 28.2101 89.9849 27.4565L95.7888 29.2162C95.4893 30.449 94.9716 31.7056 94.2357 32.9821C93.4998 34.2606 92.5258 35.4257 91.3099 36.4775C90.094 37.5313 88.64 38.3943 86.946 39.0723C85.2501 39.7483 83.2784 40.0863 81.029 40.0863L81.0271 40.0883Z" fill="white"/>
<path d="M98.0818 33.3678C98.0818 32.3756 98.2544 31.4968 98.5995 30.7293C98.9446 29.9618 99.4167 29.2937 100.018 28.7231C100.617 28.1525 101.315 27.7011 102.11 27.3691C102.904 27.039 103.767 26.7984 104.697 26.6473L110.142 25.8361C110.773 25.7466 111.207 25.5577 111.447 25.2714C111.687 24.9851 111.806 24.647 111.806 24.2573C111.806 23.4759 111.499 22.7999 110.884 22.2273C110.269 21.6566 109.331 21.3703 108.071 21.3703C106.811 21.3703 105.738 21.7302 105.034 22.4519C104.328 23.1737 103.931 24.0168 103.842 24.9771L98.5321 23.8497C98.6213 22.9789 98.8931 22.106 99.3414 21.2331C99.7916 20.3622 100.407 19.5788 101.186 18.8869C101.966 18.195 102.926 17.6323 104.066 17.1948C105.207 16.7594 106.526 16.5407 108.025 16.5407C109.765 16.5407 111.249 16.7733 112.481 17.2406C113.71 17.7078 114.708 18.3222 115.474 19.0897C116.239 19.8572 116.793 20.7519 117.138 21.7739C117.483 22.7959 117.656 23.8636 117.656 24.9771V35.893C117.656 36.4954 117.685 37.1337 117.745 37.8097C117.804 38.4857 117.864 39.0206 117.925 39.4103H112.435C112.375 39.1101 112.322 38.6965 112.278 38.1696C112.233 37.6447 112.211 37.1695 112.211 36.7499C111.64 37.6228 110.822 38.3883 109.759 39.0504C108.694 39.7105 107.335 40.0426 105.687 40.0426C104.517 40.0426 103.459 39.8537 102.515 39.4779C101.571 39.1021 100.768 38.607 100.107 37.9887C99.4465 37.3723 98.9446 36.6664 98.5995 35.8691C98.2544 35.0718 98.0818 34.2387 98.0818 33.3658V33.3678ZM106.946 35.5788C107.577 35.5788 108.184 35.4973 108.769 35.3303C109.354 35.1652 109.872 34.8789 110.322 34.4733C110.773 34.0677 111.132 33.5408 111.401 32.8946C111.671 32.2484 111.806 31.4292 111.806 30.437V29.4449L106.811 30.2123C106.032 30.3336 105.379 30.612 104.854 31.0474C104.328 31.4829 104.066 32.137 104.066 33.0099C104.066 33.672 104.306 34.2665 104.786 34.7914C105.266 35.3183 105.986 35.5808 106.946 35.5808V35.5788Z" fill="white"/>
<path d="M126.475 32.1032C126.534 32.9761 126.895 33.7575 127.554 34.4495C128.212 35.1414 129.204 35.4874 130.523 35.4874C131.513 35.4874 132.247 35.2706 132.729 34.8332C133.209 34.3978 133.449 33.8788 133.449 33.2763C133.449 32.7653 133.268 32.3219 132.909 31.9462C132.55 31.5704 131.933 31.292 131.065 31.1111L128.139 30.435C125.979 29.9539 124.404 29.1208 123.414 27.9317C122.424 26.7447 121.928 25.3688 121.928 23.804C121.928 22.8118 122.139 21.8714 122.559 20.9846C122.98 20.0978 123.557 19.3303 124.291 18.6841C125.025 18.0379 125.895 17.5189 126.901 17.1272C127.907 16.7375 129.008 16.5407 130.208 16.5407C131.767 16.5407 133.088 16.7594 134.167 17.1948C135.246 17.6303 136.125 18.181 136.799 18.8412C137.474 19.5033 137.975 20.2012 138.307 20.9388C138.636 21.6765 138.83 22.3446 138.892 22.9451L133.897 24.0724C133.838 23.7424 133.74 23.4044 133.606 23.0584C133.471 22.7124 133.253 22.3903 132.953 22.0881C132.654 21.7879 132.285 21.5473 131.85 21.3663C131.416 21.1854 130.882 21.0959 130.253 21.0959C129.474 21.0959 128.805 21.3067 128.25 21.7282C127.695 22.1497 127.417 22.6746 127.417 23.3069C127.417 23.8478 127.603 24.2852 127.98 24.6152C128.355 24.9473 128.843 25.172 129.442 25.2913L132.592 25.9673C134.782 26.4186 136.424 27.2597 137.519 28.4925C138.614 29.7252 139.162 31.1528 139.162 32.7773C139.162 33.68 138.989 34.5668 138.644 35.4376C138.299 36.3105 137.767 37.0919 137.047 37.7839C136.327 38.4758 135.427 39.0325 134.347 39.4521C133.266 39.8736 132.007 40.0844 130.567 40.0844C128.887 40.0844 127.476 39.8438 126.338 39.3626C125.197 38.8814 124.269 38.2949 123.549 37.6029C122.829 36.911 122.295 36.1674 121.952 35.37C121.607 34.5747 121.405 33.8589 121.345 33.2286L126.475 32.1013V32.1032Z" fill="white"/>
<path d="M150.908 17.2187H155.363V22.5414H150.908V31.8328C150.908 32.7952 151.125 33.4652 151.561 33.841C151.995 34.2168 152.648 34.4037 153.519 34.4037C153.878 34.4037 154.239 34.3898 154.598 34.358C154.957 34.3281 155.213 34.2824 155.363 34.2228V39.1836C155.094 39.3029 154.681 39.4242 154.126 39.5435C153.57 39.6628 152.858 39.7244 151.987 39.7244C149.827 39.7244 148.117 39.124 146.858 37.9191C145.598 36.7161 144.968 35.032 144.968 32.8667V22.5374H140.963V17.2147H142.087C143.258 17.2147 144.119 16.8767 144.674 16.2007C145.229 15.5246 145.507 14.6895 145.507 13.6974V10.5857H150.906V17.2167L150.908 17.2187Z" fill="white"/>
<path d="M158.916 39.4103V6.75418H164.9V39.4103H158.916Z" fill="white"/>
<path d="M172.146 48.1609L177.365 36.6147L167.961 17.2187H174.666L180.561 30.2084L186.006 17.2187H192.395L178.49 48.1609H172.144H172.146Z" fill="white"/>
</svg>
