<svg width="1440" height="1050" viewBox="0 0 1440 1050" fill="none" xmlns="http://www.w3.org/2000/svg">
<g clip-path="url(#clip0_2_5)">
<path d="M30 0V1150" stroke="white" stroke-opacity="0.1"/>
<path d="M183.333 0V1150" stroke="white" stroke-opacity="0.1"/>
<path d="M336.667 0V1150" stroke="white" stroke-opacity="0.1"/>
<path d="M490 0V1150" stroke="white" stroke-opacity="0.1"/>
<path d="M643.333 0V1150" stroke="white" stroke-opacity="0.1"/>
<path d="M796.667 0V1150" stroke="white" stroke-opacity="0.1"/>
<path d="M950 0V1150" stroke="white" stroke-opacity="0.1"/>
<path d="M1103.33 0V1150" stroke="white" stroke-opacity="0.1"/>
<path d="M1256.67 0V1150" stroke="white" stroke-opacity="0.1"/>
<path d="M1410 0V1150" stroke="white" stroke-opacity="0.1"/>
<path d="M0 934.375L1440 934.375" stroke="white" stroke-opacity="0.1"/>
<path d="M0 790.625L1440 790.625" stroke="white" stroke-opacity="0.1"/>
<path d="M0 646.875L1440 646.875" stroke="white" stroke-opacity="0.1"/>
<path d="M0 503.125L1440 503.125" stroke="white" stroke-opacity="0.1"/>
<path d="M0 359.375L1440 359.375" stroke="white" stroke-opacity="0.1"/>
<path d="M0 215.625L1440 215.625" stroke="white" stroke-opacity="0.1"/>
<path d="M0 71.875L1440 71.875" stroke="white" stroke-opacity="0.1"/>
</g>
<defs>
<clipPath id="clip0_2_5">
<rect width="1440" height="1050" fill="white"/>
</clipPath>
</defs>
</svg>
