<svg width="360" height="131" viewBox="0 0 360 131" fill="none" xmlns="http://www.w3.org/2000/svg">
<g filter="url(#filter0_di_649_180)">
<path d="M167.451 47.852H189.978C188.702 50.0768 187.508 52.1575 186.276 54.3045H171.297C170.051 56.4515 168.823 58.5688 167.545 60.7753C168.773 62.9086 169.991 65.0304 171.247 67.2118H186.237C187.467 69.3474 188.679 71.4555 189.98 73.7146H167.444C164.986 69.4571 162.512 65.1722 159.981 60.789C162.471 56.4789 164.961 52.1643 167.451 47.852Z" fill="white"/>
<path d="M156.259 41.306C157.621 43.6656 158.808 45.7166 160.013 47.8065C157.521 52.144 155.072 56.4014 152.55 60.7892C155.015 65.081 157.493 69.4002 160.013 73.788C158.804 75.8778 157.617 77.9288 156.263 80.2679C152.44 73.6599 148.748 67.2737 145 60.7984C148.711 54.3733 152.411 47.9688 156.259 41.3083V41.306Z" fill="white"/>
<path d="M189.998 73.7354C191.345 76.0676 192.548 78.1483 193.766 80.2588C192.511 82.431 191.286 84.5551 190.055 86.6816H160.025C161.314 84.4408 162.496 82.3875 163.736 80.2313H186.207C187.449 78.1026 188.645 76.0562 189.996 73.7377L189.998 73.7354Z" fill="white"/>
<path d="M189.998 47.8614C188.658 45.552 187.472 43.5079 186.235 41.3746H163.763C162.526 39.2321 161.342 37.1789 160.041 34.9244H190.072C191.258 36.9777 192.484 39.0972 193.764 41.3129C192.568 43.3913 191.37 45.4743 189.996 47.8614H189.998Z" fill="white"/>
<path d="M197.477 73.7971C196.135 71.4489 194.976 69.4208 193.755 67.2806C194.962 65.1519 196.172 63.0254 197.441 60.7892C196.227 58.6491 195.001 56.4929 193.744 54.275C194.965 52.1668 196.149 50.1204 197.484 47.8088C200.063 52.2606 202.512 56.4883 205 60.7801C202.521 65.0695 200.073 69.311 197.48 73.7994L197.477 73.7971Z" fill="white"/>
</g>
<g filter="url(#filter1_ii_649_180)">
<rect x="297.551" y="103.727" width="62.4494" height="27.1973" rx="13.5986" fill="#1465FD"/>
<path d="M316.228 122.325L313.179 114.951V122.325H311.823V112.681H313.636L316.873 120.512L320.097 112.681H321.923V122.325H320.553V114.938L317.491 122.325H316.228ZM328.212 122.325V121.224C327.769 122.016 326.977 122.459 325.929 122.459C324.451 122.459 323.484 121.613 323.484 120.31C323.484 118.914 324.599 118.188 326.721 118.188C327.138 118.188 327.474 118.202 328.051 118.269V117.745C328.051 116.724 327.5 116.147 326.56 116.147C325.566 116.147 324.962 116.738 324.922 117.732H323.686C323.753 116.133 324.895 115.072 326.56 115.072C328.32 115.072 329.34 116.066 329.34 117.758V122.325H328.212ZM324.774 120.27C324.774 121.009 325.325 121.492 326.198 121.492C327.339 121.492 328.051 120.781 328.051 119.693V119.115C327.527 119.048 327.151 119.034 326.802 119.034C325.445 119.034 324.774 119.437 324.774 120.27ZM332.511 118.685V122.325H331.154V115.206H332.417V116.711C332.914 115.73 333.988 115.112 335.157 115.112V116.523C333.626 116.442 332.511 117.114 332.511 118.685ZM337.882 113.554C337.882 114.065 337.48 114.454 336.902 114.454C336.324 114.454 335.908 114.065 335.908 113.554C335.908 113.031 336.324 112.655 336.902 112.655C337.48 112.655 337.882 113.031 337.882 113.554ZM337.587 122.325H336.23V115.206H337.587V122.325ZM343.782 122.325V121.224C343.338 122.016 342.546 122.459 341.498 122.459C340.021 122.459 339.054 121.613 339.054 120.31C339.054 118.914 340.169 118.188 342.291 118.188C342.707 118.188 343.043 118.202 343.62 118.269V117.745C343.62 116.724 343.07 116.147 342.13 116.147C341.136 116.147 340.531 116.738 340.491 117.732H339.255C339.322 116.133 340.464 115.072 342.13 115.072C343.889 115.072 344.91 116.066 344.91 117.758V122.325H343.782ZM340.343 120.27C340.343 121.009 340.894 121.492 341.767 121.492C342.909 121.492 343.62 120.781 343.62 119.693V119.115C343.097 119.048 342.721 119.034 342.371 119.034C341.015 119.034 340.343 119.437 340.343 120.27Z" fill="white"/>
</g>
<path d="M287.867 103.727L283 78L305.945 91.2109H293.43L287.867 103.727Z" fill="#1465FD"/>
<g filter="url(#filter2_ii_649_180)">
<rect width="55.8269" height="24.3131" rx="12.1566" transform="matrix(-1 0 0 1 55.8269 0)" fill="#6B5AF8"/>
<path d="M16.7882 17.1566L14.0626 10.5647V17.1566H12.8499V8.53549H14.4708L17.3645 15.5356L20.2462 8.53549H21.8792V17.1566H20.6545V10.5527L17.9169 17.1566H16.7882ZM27.5012 17.1566V16.172C27.105 16.8804 26.3966 17.2766 25.46 17.2766C24.1392 17.2766 23.2747 16.5202 23.2747 15.3555C23.2747 14.1068 24.2713 13.4584 26.1684 13.4584C26.5406 13.4584 26.8408 13.4704 27.3571 13.5304V13.0621C27.3571 12.1496 26.8648 11.6333 26.0243 11.6333C25.1358 11.6333 24.5955 12.1616 24.5595 13.0501H23.4548C23.5149 11.6213 24.5355 10.6727 26.0243 10.6727C27.5973 10.6727 28.5098 11.5613 28.5098 13.0742V17.1566H27.5012ZM24.4274 15.3195C24.4274 15.9799 24.9197 16.4121 25.7002 16.4121C26.7208 16.4121 27.3571 15.7757 27.3571 14.8032V14.2869C26.8889 14.2268 26.5527 14.2148 26.2405 14.2148C25.0278 14.2148 24.4274 14.575 24.4274 15.3195ZM31.3439 13.9026V17.1566H30.1312V10.7928H31.2599V12.1376C31.7041 11.2611 32.6647 10.7088 33.7093 10.7088V11.9695C32.3405 11.8975 31.3439 12.4978 31.3439 13.9026ZM36.1459 9.31595C36.1459 9.77221 35.7857 10.1204 35.2694 10.1204C34.7531 10.1204 34.3809 9.77221 34.3809 9.31595C34.3809 8.84767 34.7531 8.51147 35.2694 8.51147C35.7857 8.51147 36.1459 8.84767 36.1459 9.31595ZM35.8818 17.1566H34.669V10.7928H35.8818V17.1566ZM41.4195 17.1566V16.172C41.0233 16.8804 40.3149 17.2766 39.3783 17.2766C38.0576 17.2766 37.1931 16.5202 37.1931 15.3555C37.1931 14.1068 38.1896 13.4584 40.0868 13.4584C40.459 13.4584 40.7592 13.4704 41.2755 13.5304V13.0621C41.2755 12.1496 40.7832 11.6333 39.9427 11.6333C39.0542 11.6333 38.5138 12.1616 38.4778 13.0501H37.3732C37.4332 11.6213 38.4538 10.6727 39.9427 10.6727C41.5156 10.6727 42.4281 11.5613 42.4281 13.0742V17.1566H41.4195ZM38.3457 15.3195C38.3457 15.9799 38.838 16.4121 39.6185 16.4121C40.6391 16.4121 41.2755 15.7757 41.2755 14.8032V14.2869C40.8072 14.2268 40.471 14.2148 40.1588 14.2148C38.9461 14.2148 38.3457 14.575 38.3457 15.3195Z" fill="white"/>
</g>
<path d="M55.1779 35.1475L77.9792 40.4348L67.0174 19.4572L66.5602 30.6363L55.1779 35.1475Z" fill="#6B5AF8" stroke="#8C80F5" stroke-width="0.676868"/>
<defs>
<filter id="filter0_di_649_180" x="89" y="28.9244" width="172" height="71.7572" filterUnits="userSpaceOnUse" color-interpolation-filters="sRGB">
<feFlood flood-opacity="0" result="BackgroundImageFix"/>
<feColorMatrix in="SourceAlpha" type="matrix" values="0 0 0 0 0 0 0 0 0 0 0 0 0 0 0 0 0 0 127 0" result="hardAlpha"/>
<feOffset dy="4"/>
<feGaussianBlur stdDeviation="5"/>
<feComposite in2="hardAlpha" operator="out"/>
<feColorMatrix type="matrix" values="0 0 0 0 1 0 0 0 0 1 0 0 0 0 1 0 0 0 0.04 0"/>
<feBlend mode="normal" in2="BackgroundImageFix" result="effect1_dropShadow_649_180"/>
<feBlend mode="normal" in="SourceGraphic" in2="effect1_dropShadow_649_180" result="shape"/>
<feColorMatrix in="SourceAlpha" type="matrix" values="0 0 0 0 0 0 0 0 0 0 0 0 0 0 0 0 0 0 127 0" result="hardAlpha"/>
<feOffset dy="4"/>
<feGaussianBlur stdDeviation="2"/>
<feComposite in2="hardAlpha" operator="arithmetic" k2="-1" k3="1"/>
<feColorMatrix type="matrix" values="0 0 0 0 1 0 0 0 0 1 0 0 0 0 1 0 0 0 0.04 0"/>
<feBlend mode="normal" in2="shape" result="effect2_innerShadow_649_180"/>
</filter>
<filter id="filter1_ii_649_180" x="296.036" y="102.212" width="66.9924" height="30.2259" filterUnits="userSpaceOnUse" color-interpolation-filters="sRGB">
<feFlood flood-opacity="0" result="BackgroundImageFix"/>
<feBlend mode="normal" in="SourceGraphic" in2="BackgroundImageFix" result="shape"/>
<feColorMatrix in="SourceAlpha" type="matrix" values="0 0 0 0 0 0 0 0 0 0 0 0 0 0 0 0 0 0 127 0" result="hardAlpha"/>
<feOffset dx="-1.51432" dy="1.51432"/>
<feGaussianBlur stdDeviation="1.13574"/>
<feComposite in2="hardAlpha" operator="arithmetic" k2="-1" k3="1"/>
<feColorMatrix type="matrix" values="0 0 0 0 1 0 0 0 0 1 0 0 0 0 1 0 0 0 0.6 0"/>
<feBlend mode="normal" in2="shape" result="effect1_innerShadow_649_180"/>
<feColorMatrix in="SourceAlpha" type="matrix" values="0 0 0 0 0 0 0 0 0 0 0 0 0 0 0 0 0 0 127 0" result="hardAlpha"/>
<feOffset dx="3.02865" dy="-1.51432"/>
<feGaussianBlur stdDeviation="1.51432"/>
<feComposite in2="hardAlpha" operator="arithmetic" k2="-1" k3="1"/>
<feColorMatrix type="matrix" values="0 0 0 0 0 0 0 0 0 0 0 0 0 0 0 0 0 0 0.4 0"/>
<feBlend mode="normal" in2="effect1_innerShadow_649_180" result="effect2_innerShadow_649_180"/>
</filter>
<filter id="filter2_ii_649_180" x="-1.35374" y="-1.35374" width="59.8881" height="27.0206" filterUnits="userSpaceOnUse" color-interpolation-filters="sRGB">
<feFlood flood-opacity="0" result="BackgroundImageFix"/>
<feBlend mode="normal" in="SourceGraphic" in2="BackgroundImageFix" result="shape"/>
<feColorMatrix in="SourceAlpha" type="matrix" values="0 0 0 0 0 0 0 0 0 0 0 0 0 0 0 0 0 0 127 0" result="hardAlpha"/>
<feOffset dx="-1.35374" dy="1.35374"/>
<feGaussianBlur stdDeviation="1.0153"/>
<feComposite in2="hardAlpha" operator="arithmetic" k2="-1" k3="1"/>
<feColorMatrix type="matrix" values="0 0 0 0 1 0 0 0 0 1 0 0 0 0 1 0 0 0 0.6 0"/>
<feBlend mode="normal" in2="shape" result="effect1_innerShadow_649_180"/>
<feColorMatrix in="SourceAlpha" type="matrix" values="0 0 0 0 0 0 0 0 0 0 0 0 0 0 0 0 0 0 127 0" result="hardAlpha"/>
<feOffset dx="2.70747" dy="-1.35374"/>
<feGaussianBlur stdDeviation="1.35374"/>
<feComposite in2="hardAlpha" operator="arithmetic" k2="-1" k3="1"/>
<feColorMatrix type="matrix" values="0 0 0 0 0 0 0 0 0 0 0 0 0 0 0 0 0 0 0.4 0"/>
<feBlend mode="normal" in2="effect1_innerShadow_649_180" result="effect2_innerShadow_649_180"/>
</filter>
</defs>
</svg>
