<svg width="90" height="18" viewBox="0 0 90 18" fill="none" xmlns="http://www.w3.org/2000/svg">
<path d="M6.40888 17.1191H3.05946V8.76945H0.777771V6.05096H3.05937V4.11656C3.05937 1.8243 4.06853 0.180298 7.40888 0.180298C8.11537 0.180298 9.22453 0.322698 9.22453 0.322698V2.84696H8.05955C6.87253 2.84696 6.40906 3.20803 6.40906 4.20625V6.05096H9.18008L8.93333 8.76945H6.40897L6.40888 17.1191ZM14.0942 5.83372C14.0454 5.83372 13.9952 5.8355 13.9455 5.83674C10.8397 5.83674 9.41875 8.17292 9.41875 11.4892C9.41875 15.6668 11.2619 17.3388 13.9698 17.3388C15.519 17.3388 16.5369 16.6867 17.1555 15.4698V17.1203H20.3413V6.05212H17.1555V7.75425C16.6504 6.65914 15.6041 5.8467 14.0942 5.83372ZM14.9043 8.4491C16.2087 8.4491 16.9916 9.35896 16.9916 10.9066L16.9947 12.4873C16.9947 13.5304 16.348 14.7508 14.9043 14.7508C12.6847 14.7508 12.744 12.3542 12.744 11.5559C12.744 8.87088 13.9266 8.4491 14.9043 8.4491ZM21.6279 11.5868C21.6279 10.2418 21.5635 5.84092 27.2972 5.84092C29.5988 5.84092 30.5599 6.57274 30.5599 6.57274L29.7875 8.96856C29.7875 8.96856 28.8276 8.44003 27.577 8.44003C25.9751 8.44003 24.953 9.36865 24.953 11.0025L24.9547 12.1741C24.9547 13.744 25.941 14.792 27.5803 14.792C28.7196 14.792 29.7698 14.2585 29.7698 14.2585L30.5403 16.6043C30.5403 16.6043 29.6615 17.3407 27.3133 17.3407C21.8539 17.3407 21.628 13.3923 21.628 11.5868H21.6279ZM49.2393 5.83674C52.3451 5.83674 53.7885 8.17292 53.7885 11.4892C53.7885 15.6668 51.9452 17.3388 49.2374 17.3388C47.6882 17.3388 46.5429 16.6868 45.9243 15.4698V17.1203L42.7786 17.1191V0.516831L46.1185 0.225542V7.6043C46.6005 6.31336 48.1846 5.83674 49.2393 5.83674ZM48.3029 8.4491C46.9985 8.4491 46.1185 9.35896 46.1185 10.9066L46.1154 12.4873C46.1134 13.5304 46.7248 14.7508 48.3029 14.7508C50.5225 14.7508 50.4632 12.3542 50.4632 11.5559C50.4632 8.87088 49.2807 8.4491 48.3029 8.4491ZM36.3549 5.8459C32.8323 5.8459 30.9725 7.76652 30.9725 11.1797V11.8138C30.9725 16.2438 33.5842 17.3843 36.6978 17.3843C39.7242 17.3843 41.094 16.5378 41.094 16.5378L40.4691 14.2836C40.4691 14.2836 38.8577 14.9692 37.0982 14.9692C35.2742 14.9692 34.4898 14.5043 34.2887 12.7514H41.3611V10.943C41.3611 7.24056 39.2739 5.84581 36.3548 5.84581L36.3549 5.8459ZM36.4398 8.10314C37.6592 8.10314 38.4493 8.85088 38.4059 10.585H34.2948C34.3661 8.75985 35.2182 8.10314 36.4398 8.10314ZM60.4482 5.8307C56.8307 5.8307 54.9262 7.86928 54.9262 11.5225C54.9262 16.535 58.2091 17.3418 60.4542 17.3418C63.741 17.3418 65.9276 15.5723 65.9276 11.568C65.9276 7.4003 63.469 5.8307 60.4482 5.8307ZM60.4027 8.45816C61.9933 8.45816 62.6236 9.64865 62.6236 11.0038V12.1688C62.6236 13.8104 61.7417 14.7599 60.3966 14.7599C59.1387 14.7599 58.2546 13.8718 58.2546 12.1688V11.0038C58.2546 9.18759 59.3066 8.45816 60.4027 8.45816ZM72.5813 5.8307C68.9638 5.8307 67.0594 7.86928 67.0594 11.5225C67.0594 16.535 70.3422 17.3418 72.5874 17.3418C75.874 17.3418 78.0608 15.5723 78.0608 11.568C78.0608 7.4003 75.602 5.8307 72.5813 5.8307ZM72.5358 8.45816C74.1265 8.45816 74.7567 9.64865 74.7567 11.0038V12.1688C74.7567 13.8104 73.8747 14.7599 72.5298 14.7599C71.2718 14.7599 70.3877 13.8718 70.3877 12.1688V11.0038C70.3877 9.18759 71.4397 8.45816 72.5358 8.45816ZM79.3229 17.1191V0.516831L82.6725 0.225631V11.3535L85.9957 6.05105H89.5331L86.0665 11.5429L89.6667 17.1191H86.1192L82.6725 11.7046V17.1191H79.3229Z" fill="#464A53"/>
</svg>
