<svg width="90" height="28" viewBox="0 0 90 28" fill="none" xmlns="http://www.w3.org/2000/svg">
<path d="M84.2277 27.3797H32.8938C30.1353 27.3797 27.8993 25.1437 27.8993 22.3852V5.18044C27.8993 2.42194 30.1353 0.185913 32.8938 0.185913H84.2277C86.9862 0.185913 89.2222 2.42194 89.2222 5.18044V22.3852C89.2222 25.1437 86.9862 27.3797 84.2277 27.3797Z" fill="#464A53"/>
<path d="M79.1531 22.7596H72.6949C71.8771 22.7596 71.2134 22.0959 71.2134 21.2781V6.28762C71.2134 5.46886 71.8771 4.80615 72.6949 4.80615H79.1531C79.9709 4.80615 80.6346 5.46886 80.6346 6.28762C80.6346 7.10638 79.9709 7.76909 79.1531 7.76909H74.1764V19.7966H79.1531C79.9709 19.7966 80.6346 20.4603 80.6346 21.2781C80.6346 22.0959 79.9709 22.7596 79.1531 22.7596Z" fill="#01050E"/>
<path d="M79.1531 15.2643H72.6949C71.8771 15.2643 71.2134 14.6016 71.2134 13.7829C71.2134 12.9641 71.8771 12.3014 72.6949 12.3014H79.1531C79.9709 12.3014 80.6346 12.9641 80.6346 13.7829C80.6346 14.6016 79.9709 15.2643 79.1531 15.2643Z" fill="#01050E"/>
<path d="M50.1895 22.7596C49.3717 22.7596 48.708 22.0959 48.708 21.2781V6.28762C48.708 5.46886 49.3717 4.80615 50.1895 4.80615C51.0072 4.80615 51.6709 5.46886 51.6709 6.28762V21.2781C51.6709 22.0959 51.0082 22.7596 50.1895 22.7596Z" fill="#01050E"/>
<path d="M44.2843 22.3892H37.9673C37.1486 22.3892 36.4858 21.7255 36.4858 20.9077V6.65896C36.4858 5.8402 37.1486 5.17749 37.9673 5.17749C38.7861 5.17749 39.4488 5.8402 39.4488 6.65896V19.4263H44.2843C45.103 19.4263 45.7658 20.09 45.7658 20.9077C45.7658 21.7255 45.103 22.3892 44.2843 22.3892Z" fill="#01050E"/>
<path d="M61.6451 22.7595C61.018 22.7595 60.4599 22.3654 60.2496 21.7748L54.9133 6.78433C54.6388 6.01396 55.0417 5.16656 55.8121 4.892C56.5814 4.61743 57.4298 5.0194 57.7044 5.79076L61.6451 16.8603L65.5858 5.79076C65.8604 5.0194 66.7098 4.61743 67.4781 4.892C68.2485 5.16656 68.6515 6.01396 68.3769 6.78433L63.0407 21.7748C62.8303 22.3644 62.2723 22.7595 61.6451 22.7595Z" fill="#01050E"/>
<path d="M24.2142 6.99536C22.66 6.99536 21.2252 6.47916 20.0735 5.6105C18.7524 4.61417 17.8033 3.15437 17.4675 1.46977C17.3842 1.05348 17.3398 0.623309 17.3343 0.184814H12.8938V12.3184L12.8883 18.9652C12.8883 20.7413 11.731 22.2483 10.1269 22.7784C9.66061 22.931 9.15828 23.006 8.63376 22.9754C7.96491 22.9394 7.34047 22.7368 6.79652 22.4121C5.63922 21.7182 4.85382 20.4638 4.83162 19.0262C4.79831 16.781 6.61335 14.9493 8.85855 14.9493C9.3026 14.9493 9.72722 15.0215 10.1269 15.1519V11.8355V10.6421C9.70779 10.581 9.2804 10.5477 8.84745 10.5477C6.39133 10.5477 4.09339 11.569 2.45042 13.409C1.20987 14.7995 0.463318 16.5729 0.349531 18.4351C0.199666 20.8801 1.09331 23.203 2.82786 24.9154C3.08319 25.1679 3.34961 25.401 3.62992 25.6147C5.11747 26.7582 6.93528 27.3798 8.85023 27.3798C9.28317 27.3798 9.71057 27.3465 10.1296 27.2855C11.9169 27.0218 13.5682 26.2031 14.8698 24.9154C16.4712 23.3335 17.3537 21.2353 17.3648 18.9985L17.3426 9.07405C18.1058 9.66241 18.9412 10.1509 19.8376 10.5283C21.2308 11.1167 22.7072 11.4136 24.2281 11.4136V8.18873V6.99259L24.2142 6.99536Z" fill="#464A53"/>
</svg>
