<svg width="89" height="30" viewBox="0 0 89 30" fill="none" xmlns="http://www.w3.org/2000/svg">
<path d="M87.3241 21.0088H81.0835V13.2277H79.5234V21.0088H73.2828V1.56012H79.5234V7.00345H84.2038L87.3241 10.1159V21.0088ZM71.7305 13.2276H65.4899V14.7878H71.7305V21.0127H62.3743L59.254 17.9002V10.1159L62.3743 7.00345H71.7305L71.7305 13.2276ZM57.6962 13.2277H52.2358V14.7878H57.6962V21.0128H49.1202L45.9999 17.9003V1.56012H52.2404V7.00345H57.7009L57.6962 13.2277ZM44.4421 5.44722H38.2015V1.56012H44.4421V5.44722ZM44.4421 21.0088H38.2015V7.00348H44.4421V21.0088ZM36.6414 21.0089H17.933L14.8127 17.8964V7.00345H21.0533V14.7839H22.6134V7.00345H28.854V14.7839H30.4141V7.00345H36.6547L36.6414 21.0089ZM13.2549 13.2276H7.80068V14.7878H13.2612V21.0127H4.6804L1.56012 17.9002V1.56012H7.80068V7.00345H13.2612L13.2549 13.2276ZM84.9854 5.44722H81.0851V0H72.5269L68.5899 5.44722H61.595L59.2548 7.78119V5.44722H53.7944V0H36.6453V5.44722H12.5139L8.58077 0H0V18.6749L10.9155 29.5646H21.831V26.4522L24.9513 29.5646H46.0014V26.4522L49.1217 29.5646H59.2556V26.4522L62.3759 29.5646H81.8683L88.8889 22.5612V9.33741L84.9854 5.44722Z" fill="#464A53"/>
<path d="M73.2898 21.0089H79.5273V13.2278H81.0866V21.0089H87.324V10.116L84.2053 7.00355H79.5273V1.55713H73.2898V21.0089ZM46.0014 17.8964L49.1194 21.0089H57.6962V14.7839H52.2389V13.2278H57.6962V7.00355H52.2389V1.55713H46.0015L46.0014 17.8964ZM59.2556 17.8964L62.3743 21.0089H71.7305V14.7839H65.493V13.2278H71.7304V7.00355H62.3743L59.2556 10.116V17.8964ZM38.2047 1.55713H44.4421V5.44732H38.2047V1.55713ZM13.2549 7.00355H7.79675V1.55713H1.55936V17.8964L4.67806 21.0089H13.2549V14.7839H7.79675V13.2278H13.2549L13.2549 7.00355ZM14.8143 17.8964L17.9322 21.0089H36.6453V7.00355H30.4079V14.784H28.8477V7.00355H22.6111V14.784H21.0517V7.00355H14.8143V17.8964ZM38.2047 7.00355H44.4421V21.0089H38.2047V7.00355Z" fill="black"/>
</svg>
