<svg width="90" height="21" viewBox="0 0 90 21" fill="none" xmlns="http://www.w3.org/2000/svg">
<path d="M28.2954 3.96989C27.9688 2.75671 27.0122 1.80016 25.799 1.47353C23.5827 0.866943 14.7171 0.866943 14.7171 0.866943C14.7171 0.866943 5.85155 0.866943 3.63516 1.4502C2.44531 1.77683 1.46543 2.75671 1.1388 3.96989C0.555542 6.18628 0.555542 10.7824 0.555542 10.7824C0.555542 10.7824 0.555542 15.4018 1.1388 17.5949C1.46543 18.808 2.42198 19.7646 3.63516 20.0912C5.87488 20.6978 14.7171 20.6978 14.7171 20.6978C14.7171 20.6978 23.5827 20.6978 25.799 20.1145C27.0122 19.7879 27.9688 18.8314 28.2954 17.6182C28.8787 15.4018 28.8787 10.8057 28.8787 10.8057C28.8787 10.8057 28.902 6.18628 28.2954 3.96989Z" fill="#464A53"/>
<path d="M11.8941 6.53625V15.0285L19.2665 10.7824L11.8941 6.53625Z" fill="#01050E"/>
<path d="M41.6871 18.9246C41.1272 18.5514 40.7305 17.9681 40.4972 17.1515C40.2639 16.3583 40.1473 15.2851 40.1473 13.9786V12.1822C40.1473 10.8523 40.2873 9.77912 40.5439 8.96256C40.8239 8.14599 41.2438 7.56273 41.8037 7.18945C42.387 6.81616 43.1336 6.62952 44.0668 6.62952C44.9767 6.62952 45.7232 6.81616 46.2832 7.18945C46.8431 7.56273 47.2397 8.16932 47.4964 8.96256C47.753 9.75579 47.893 10.829 47.893 12.1822V13.9786C47.893 15.3084 47.7763 16.3583 47.5197 17.1749C47.2631 17.9681 46.8664 18.5747 46.3065 18.948C45.7466 19.3213 44.9767 19.5079 44.0201 19.5079C43.0403 19.4846 42.247 19.2979 41.6871 18.9246ZM44.8367 16.9649C45 16.5683 45.07 15.8917 45.07 14.9818V11.109C45.07 10.2224 45 9.56915 44.8367 9.1492C44.6734 8.72925 44.4167 8.54261 44.0201 8.54261C43.6468 8.54261 43.3669 8.75258 43.2269 9.1492C43.0636 9.56915 42.9936 10.2224 42.9936 11.109V14.9818C42.9936 15.8917 43.0636 16.5683 43.2269 16.9649C43.3669 17.3615 43.6468 17.5715 44.0435 17.5715C44.4167 17.5715 44.6734 17.3848 44.8367 16.9649Z" fill="#464A53"/>
<path d="M84.7551 14.002V14.6319C84.7551 15.4251 84.7784 16.0317 84.8251 16.4283C84.8718 16.8249 84.9651 17.1282 85.1284 17.2915C85.2684 17.4782 85.5017 17.5715 85.8283 17.5715C86.2482 17.5715 86.5282 17.4082 86.6915 17.0816C86.8548 16.7549 86.9248 16.2183 86.9482 15.4484L89.3512 15.5884C89.3745 15.7051 89.3745 15.8451 89.3745 16.0317C89.3745 17.1749 89.0712 18.0381 88.4413 18.5981C87.8114 19.158 86.9248 19.4379 85.7816 19.4379C84.4051 19.4379 83.4486 18.9947 82.8887 18.1314C82.3287 17.2682 82.0488 15.9384 82.0488 14.1186V11.9489C82.0488 10.0824 82.3287 8.72928 82.912 7.86606C83.4953 7.00283 84.4751 6.58289 85.8516 6.58289C86.8082 6.58289 87.5547 6.76953 88.068 7.11949C88.5813 7.46944 88.9312 8.02937 89.1412 8.75261C89.3512 9.49919 89.4445 10.5257 89.4445 11.8322V13.9553H84.7551V14.002ZM85.1051 8.77595C84.9651 8.96259 84.8718 9.24255 84.8251 9.63917C84.7784 10.0358 84.7551 10.6424 84.7551 11.4589V12.3455H86.8082V11.4589C86.8082 10.6657 86.7848 10.0591 86.7382 9.63917C86.6915 9.21922 86.5749 8.93926 86.4349 8.77595C86.2949 8.61263 86.0616 8.51931 85.7816 8.51931C85.455 8.49598 85.245 8.5893 85.1051 8.77595Z" fill="#464A53"/>
<path d="M34.8746 13.7685L31.7017 2.2666H34.478L35.5978 7.46928C35.8778 8.75246 36.0878 9.84899 36.2278 10.7589H36.2977C36.3911 10.1056 36.601 9.03242 36.9277 7.49261L38.0942 2.2666H40.8705L37.6509 13.7685V19.2745H34.8979V13.7685H34.8746Z" fill="#464A53"/>
<path d="M56.9217 6.86279V19.2979H54.7287L54.4954 17.7814H54.4254C53.8421 18.9246 52.9322 19.5079 51.7424 19.5079C50.9258 19.5079 50.3192 19.2279 49.9226 18.6913C49.526 18.1547 49.3394 17.3148 49.3394 16.1483V6.86279H52.139V15.985C52.139 16.5449 52.209 16.9415 52.3256 17.1748C52.4423 17.4081 52.6523 17.5248 52.9322 17.5248C53.1655 17.5248 53.3988 17.4548 53.6322 17.2915C53.8655 17.1515 54.0288 16.9649 54.1221 16.7316V6.86279H56.9217Z" fill="#464A53"/>
<path d="M71.2701 6.86279V19.2979H69.0771L68.8438 17.7814H68.7738C68.1905 18.9246 67.2806 19.5079 66.0908 19.5079C65.2742 19.5079 64.6676 19.2279 64.271 18.6913C63.8744 18.1547 63.6877 17.3148 63.6877 16.1483V6.86279H66.4874V15.985C66.4874 16.5449 66.5574 16.9415 66.674 17.1748C66.7907 17.4081 67.0007 17.5248 67.2806 17.5248C67.5139 17.5248 67.7472 17.4548 67.9805 17.2915C68.2138 17.1515 68.3772 16.9649 68.4705 16.7316V6.86279H71.2701Z" fill="#464A53"/>
<path d="M64.5275 4.52965H61.7512V19.2745H59.0216V4.52965H56.2452V2.2666H64.5275V4.52965Z" fill="#464A53"/>
<path d="M80.5323 8.84606C80.369 8.05283 80.089 7.4929 79.7157 7.14294C79.3424 6.79298 78.8058 6.60634 78.1526 6.60634C77.6393 6.60634 77.1494 6.74632 76.7061 7.04962C76.2628 7.32958 75.9129 7.7262 75.6796 8.19281H75.6562V1.63696H72.9499V19.2748H75.2596L75.5396 18.1082H75.6096C75.8195 18.5282 76.1462 18.8548 76.5894 19.1114C77.0327 19.3447 77.4993 19.4847 78.0359 19.4847C78.9925 19.4847 79.6691 19.0415 80.1123 18.1782C80.5556 17.315 80.7889 15.9385 80.7889 14.0954V12.1356C80.7656 10.7125 80.6956 9.61596 80.5323 8.84606ZM77.9659 13.9088C77.9659 14.8186 77.9193 15.5186 77.8493 16.0318C77.7793 16.5451 77.6393 16.9184 77.476 17.1284C77.2894 17.3383 77.056 17.455 76.7761 17.455C76.5428 17.455 76.3328 17.4083 76.1462 17.2917C75.9595 17.175 75.7962 17.0117 75.6796 16.8017V9.75595C75.7729 9.42932 75.9362 9.14936 76.1695 8.91605C76.4028 8.70608 76.6594 8.58943 76.9161 8.58943C77.196 8.58943 77.4293 8.70608 77.5693 8.91605C77.7326 9.14936 77.8259 9.52264 77.8959 10.0359C77.9659 10.5725 77.9893 11.3191 77.9893 12.2756V13.9088H77.9659Z" fill="#464A53"/>
</svg>
